<svg xmlns:xlink="http://www.w3.org/1999/xlink" xmlns="http://www.w3.org/2000/svg" height="30" viewBox="0 0 128 128" width="30"><g><g><circle cx="64" cy="63.997" fill="#FABEAB" r="62.25"></circle><circle cx="64" cy="63.997" fill="#EA3E02" r="52.25"></circle><g fill="#FACE00"><path d="m72.812 37.125h-17.625a5 5 0 0 1 -5-5 5 5 0 0 1 5-5h17.625a5 5 0 0 1 5 5 5 5 0 0 1 -5 5z" fill="#FACE00"></path><path d="m77.812 52.141a5 5 0 0 0 -5-5h-17.625a5 5 0 0 0 -5 5 5 5 0 0 0 5 5h3.813v33.734h-3.813a5 5 0 0 0 -5 5 5 5 0 0 0 5 5h17.625a5 5 0 0 0 5-5 5 5 0 0 0 -5-5h-3.812v-33.734h3.812a5 5 0 0 0 5-5z" fill="#FACE00"></path></g></g><g><path d="m64 0a64 64 0 1 0 64 64 64.072 64.072 0 0 0 -64-64zm0 124.5a60.5 60.5 0 1 1 60.5-60.5 60.569 60.569 0 0 1 -60.5 60.5z"></path><path d="m64 10a53.536 53.536 0 0 0 -38.966 16.65 1.75 1.75 0 1 0 2.526 2.422 50.475 50.475 0 1 1 -14.06 34.928 1.75 1.75 0 0 0 -3.5 0 54 54 0 1 0 54-54z"></path><path d="m13.683 49.787a1.75 1.75 0 0 0 2.2-1.135 50.2 50.2 0 0 1 2.083-5.413 1.75 1.75 0 0 0 -3.188-1.445 53.552 53.552 0 0 0 -2.229 5.794 1.75 1.75 0 0 0 1.134 2.199z"></path><path d="m55.187 38.875h17.625a6.75 6.75 0 0 0 0-13.5h-17.625a6.75 6.75 0 0 0 0 13.5zm0-10h17.625a3.25 3.25 0 0 1 0 6.5h-17.625a3.25 3.25 0 0 1 0-6.5z"></path><path d="m55.187 89.125a6.75 6.75 0 0 0 0 13.5h17.625a1.75 1.75 0 1 0 0-3.5h-17.625a3.25 3.25 0 0 1 0-6.5h3.813a1.75 1.75 0 0 0 1.75-1.75v-33.734a1.75 1.75 0 0 0 -1.75-1.75h-3.813a3.25 3.25 0 0 1 0-6.5h17.625a3.25 3.25 0 0 1 0 6.5h-3.812a1.749 1.749 0 0 0 -1.75 1.75v33.734a1.749 1.749 0 0 0 1.75 1.75h3.812a1.75 1.75 0 1 0 0-3.5h-2.062v-30.234h2.062a6.75 6.75 0 0 0 0-13.5h-17.625a6.75 6.75 0 0 0 0 13.5h2.063v30.234z"></path></g></g></svg>