<svg width="30" height="30" viewBox="0 0 30 30" fill="none" xmlns="http://www.w3.org/2000/svg">
<g clip-path="url(#clip0_6885_34133)">
<path d="M14.9998 29.9996C23.2839 29.9996 29.9996 23.2839 29.9996 14.9998C29.9996 6.71564 23.2839 0 14.9998 0C6.71564 0 0 6.71564 0 14.9998C0 23.2839 6.71564 29.9996 14.9998 29.9996Z" fill="#FFA300"/>
<path d="M4.39453 4.39305C10.2519 -1.46435 19.7496 -1.46435 25.607 4.39305C31.4644 10.2514 31.4654 19.7481 25.607 25.6065" fill="#FFB300"/>
<path d="M24.7301 15.7637L16.1722 11.8179C16.1732 11.6336 16.1493 8.84697 16.1493 8.66934C16.1493 5.53628 15.9069 6.25437 15.6215 5.22969C15.5877 5.01832 15.5235 4.8514 15.4452 4.73096C15.298 4.38408 15.142 4.22656 15.0037 4.22656C14.8654 4.22656 14.7107 4.38408 14.5616 4.73096C14.4843 4.85188 14.4252 5.01832 14.3924 5.22969C14.1074 6.25437 13.8759 5.53628 13.8759 8.67029C13.8759 8.84703 13.8768 11.6337 13.8791 11.8179L5.27018 15.7637C5.11879 15.8341 4.92188 15.985 4.92188 16.1528V17.0776C4.92188 17.2014 5.07564 17.3195 5.16794 17.4006C5.24762 17.4685 5.39622 17.506 5.49982 17.506C5.51856 17.506 5.56403 17.5041 5.58325 17.5013L14.0009 16.344C14.142 19.2582 14.3778 22.1756 14.6141 23.8776L12.8609 24.9159C12.7601 24.9736 12.7006 25.0818 12.7006 25.1971L12.7025 25.4423C12.7025 25.5394 12.7456 25.6308 12.8196 25.6931C12.8783 25.7423 12.9537 25.769 13.0296 25.769C13.0489 25.769 13.0676 25.7671 13.0868 25.7643L14.8601 25.4531C14.913 25.4437 14.959 25.4184 14.9993 25.3879C15.0386 25.4179 15.0855 25.4437 15.1384 25.4531L16.9108 25.7643C16.931 25.7671 16.9483 25.769 16.9684 25.769C17.0434 25.769 17.1189 25.7423 17.1789 25.6931C17.2525 25.6307 17.2951 25.5393 17.2951 25.4423L17.2961 25.1971C17.2961 25.0818 17.2347 24.9744 17.1339 24.9159L15.379 23.8767C15.6133 22.1756 15.844 19.2572 15.9851 16.344L24.3906 17.5013C24.4093 17.5041 24.429 17.506 24.4492 17.506C24.5514 17.506 24.752 17.4685 24.8298 17.4006C24.924 17.319 25.0778 17.2009 25.0778 17.0776V16.1528C25.0778 15.985 24.881 15.8341 24.7301 15.7637Z" fill="white"/>
<path d="M24.7298 15.7637L16.172 11.8179C16.1729 11.6336 16.149 8.84697 16.149 8.66934C16.149 5.53628 15.9067 6.25437 15.6212 5.22969C15.5875 5.01832 15.5233 4.8514 15.445 4.73096C15.2978 4.38408 15.1417 4.22656 15.0034 4.22656C14.8651 4.22656 14.7105 4.38408 14.5614 4.73096C14.484 4.85188 14.425 5.01832 14.3922 5.22969C14.1072 6.25437 13.8756 5.53628 13.8756 8.67029C13.8756 8.84703 13.8766 11.6337 13.8789 11.8179L12.4727 12.4709L16.404 16.4023L24.3919 17.5019C24.4106 17.5047 24.4303 17.5066 24.4505 17.5066C24.5527 17.5066 24.7533 17.4691 24.8311 17.4012C24.9239 17.3191 25.0777 17.201 25.0777 17.0777V16.1528C25.0776 15.985 24.8807 15.8341 24.7298 15.7637Z" fill="white"/>
</g>
<defs>
<clipPath id="clip0_6885_34133">
<rect width="30" height="30" fill="white"/>
</clipPath>
</defs>
</svg>
