<svg xmlns="http://www.w3.org/2000/svg" xmlns:xlink="http://www.w3.org/1999/xlink" height="30" width="30" version="1.1" id="Layer_1" x="0px" y="0px" viewBox="0 0 496.159 496.159" style="enable-background:new 0 0 496.159 496.159;" xml:space="preserve"> <path style="" d="M248.083,0.003C111.071,0.003,0,111.063,0,248.085c0,137.001,111.07,248.07,248.083,248.07  c137.006,0,248.076-111.069,248.076-248.07C496.159,111.062,385.089,0.003,248.083,0.003z" fill="#ECF512"></path> <path style="" d="M248.082,39.002C132.609,39.002,39,132.602,39,248.084c0,115.463,93.609,209.072,209.082,209.072  c115.468,0,209.077-93.609,209.077-209.072C457.159,132.602,363.55,39.002,248.082,39.002z" fill="#ECF512"></path> <path style="" d="M386.979,180.867c-1.495-9.986-59.138-26.916-64.146-34.079c-5.008-7.16-10.809-46.878-16.081-48.199  c-5.272-1.317-14.499,46.132-20.001,58.225c-3.88,8.521-26.566,42.209-30.581,47.637c0,0-97.042,8.154-102.409,5.806  c-5.364-2.354-38.13-49.713-44.1-46.111c-5.97,3.604,30.024,67.576,30.024,67.576s8.615,34.928,7.58,56.673  c-0.494,10.381-10.031,31.471-9.042,40.861c1.313,12.447,2.72,48.191,5.747,50.747c3.028,2.555,15.507,1.645,17.3,0  c1.795-1.646,1.152-46.794,1.152-46.794s19.772-42.838,32.954-49.429c13.182-6.589,81.723,3.297,86.003,9.561  c4.283,6.261,12.852,80.649,14.829,82.709c1.977,2.06,15.324,2.636,17.919,0.582c2.599-2.053,2.006-126.289,2.006-126.289  c2.362-4.979,13.457-43.112,16.722-43.417c4.357-0.408,20.031,5.02,34.079,4.013C380.978,209.929,388.473,190.86,386.979,180.867z" fill="#5B5147"></path> </svg>