<svg xmlns:xlink="http://www.w3.org/1999/xlink" xmlns="http://www.w3.org/2000/svg" id="Layer_1" enable-background="new 0 0 512 512" height="30" viewBox="0 0 512 512" width="30"><g><g><g><g id="XMLID_1361_"><g id="XMLID_1362_"><g id="XMLID_1363_"><g id="XMLID_1364_"><g id="XMLID_1365_"><g id="XMLID_1366_"><g id="XMLID_1367_"><g id="XMLID_1368_"><g id="XMLID_1369_"><g id="XMLID_1370_"><g id="XMLID_1371_"><g id="XMLID_1372_"><g id="XMLID_1373_"><g id="XMLID_1374_"><g id="XMLID_1505_"><circle cx="256" cy="256" fill="#9DBC29" r="256"></circle></g></g></g></g></g></g></g></g></g></g></g></g></g></g></g></g></g><path d="m135.175 399.341 112.51 112.51c2.762.089 5.532.149 8.315.149 141.385 0 256-114.615 256-256 0-41.178-9.737-80.076-27.011-114.542l-49.512-49.512z" fill="#4A9D45"></path><g><path d="m76.523 277.342v-185.396l131.913 75.753z" fill="#BF6726"></path><path d="m435.477 277.342v-185.396l-131.913 75.753z" fill="#9B5323"></path><path d="m433.373 260.176c-16.267-64.359-86.772-113.077-177.022-113.286v-.005c-.097 0-.194.002-.291.003-.097 0-.194-.003-.291-.003v.005c-90.25.209-160.754 48.927-177.022 113.286-15.182 60.067 52.015 187.932 177.022 187.932s192.787-127.865 177.604-187.932z" fill="#7C4A3E"></path><path d="m256 448.11v-301.22h.06c.1 0 .19-.01.29-.01v.01c90.25.21 160.76 48.93 177.02 113.29 15.18 60.02-52.51 187.77-177.37 187.93z" fill="#613526"></path><g><path d="m317.128 218.456c-26.65-.893-49.889 14.053-61.075 36.139-11.185-22.085-34.425-37.031-61.075-36.139-34.099 1.142-61.998 28.664-63.569 62.745-1.744 37.816 28.399 69.023 65.831 69.023 19.271 0 36.6-8.277 48.646-21.465 5.425-5.939 14.909-5.939 20.333 0 12.046 13.188 29.376 21.465 48.646 21.465 37.432 0 67.575-31.207 65.831-69.023-1.57-34.081-29.469-61.603-63.568-62.745z" fill="#FFE8BB"></path><path d="m314.87 350.22c-8.59 0-16.82-1.65-24.34-4.65-9.35-3.71-17.64-9.51-24.31-16.81-2.72-2.99-6.48-4.47-10.22-4.46v-69.81c.02.03.03.07.05.1 11.19-22.08 34.43-37.03 61.08-36.13 34.1 1.14 62 28.66 63.57 62.74 1.74 37.82-28.4 69.02-65.83 69.02z" fill="#FFDC7B"></path><g><circle cx="197.24" cy="284.321" fill="#5E5E5E" r="31.044"></circle><circle cx="314.866" cy="284.321" fill="#4C4C4C" r="31.044"></circle></g><path d="m256.053 386.038 34.48-40.465-34.48-28.255-34.48 28.255z" fill="#FFC239"></path><path d="m290.53 345.57-34.48 40.47-.05-.06v-68.62l.05-.04z" fill="#F4A416"></path></g></g></g></svg>