<svg width="70" height="70" viewBox="0 0 70 70" fill="none" xmlns="http://www.w3.org/2000/svg">
<path d="M64.5312 66.7188L5.46875 66.8445V20.907L35 3.28125L64.5312 20.7812V66.7188Z" fill="#0292C9"/>
<path d="M54.6882 66.8566L55.4765 64.0923C57.1209 58.6107 57.6244 52.8502 56.9558 47.1665C56.1842 40.6078 53.8725 34.3245 50.2093 28.8296C48.1086 25.6785 45.4526 22.9355 42.3708 20.7343C40.3965 19.324 38.1455 18.3488 35.7663 17.873C34.5478 17.6294 33.2867 17.7079 32.1077 18.1008L29.5101 18.9668C28.8316 19.1929 28.2105 19.5643 27.6901 20.0549C27.1697 20.5456 26.7625 21.1437 26.4968 21.8078L25.157 25.1574L18.6233 28.4241C18.3459 28.5629 18.1011 28.759 17.9052 28.9995C17.7094 29.2401 17.5669 29.5195 17.4873 29.8193C17.4077 30.1191 17.3928 30.4324 17.4435 30.7384C17.4942 31.0444 17.6095 31.3362 17.7815 31.5942L20.782 36.0949L27.2415 35.507V66.8457L54.6882 66.8566Z" fill="#FBB540"/>
<path d="M47.0307 29.015C47.0307 30.1754 46.5697 31.2882 45.7493 32.1086C44.9288 32.9291 43.816 33.39 42.6557 33.39C41.4953 33.39 40.3825 32.9291 39.5621 32.1086C38.7416 31.2882 38.2807 30.1754 38.2807 29.015V26.7291C38.2805 24.9847 37.8065 23.2731 36.9094 21.7771L35.7951 19.9205C35.3235 19.1349 34.7674 18.4032 34.1367 17.7385C34.2133 17.7357 34.2885 17.7344 34.365 17.7344C34.8351 17.7341 35.3041 17.7803 35.765 17.8725C38.1444 18.3481 40.3956 19.3234 42.3699 20.734C42.832 21.0648 43.285 21.4076 43.7289 21.7621C44.7658 22.6647 45.5971 23.7792 46.1667 25.0303C46.7363 26.2815 47.0309 27.6403 47.0307 29.015Z" fill="#FBB540"/>
<path d="M19.6472 32.1098L18.5945 32.8125L17.781 31.593C17.6091 31.3348 17.494 31.043 17.4434 30.737C17.3928 30.431 17.4078 30.1177 17.4874 29.8179C17.5671 29.5181 17.7095 29.2386 17.9053 28.9981C18.1011 28.7575 18.3458 28.5613 18.6232 28.4225L20.7751 27.3465L20.782 27.3438L21.0294 28.0848C21.2722 28.8144 21.2685 29.6036 21.0187 30.3309C20.769 31.0582 20.2871 31.6832 19.6472 32.1098Z" fill="#FBB540"/>
<path d="M50.4548 43.3889L43.75 50.0938L37.0452 43.3889C36.7435 43.0873 36.5043 42.7292 36.341 42.3351C36.1778 41.941 36.0937 41.5186 36.0938 41.0921C36.0938 40.2305 36.436 39.4043 37.0452 38.7952C37.6543 38.186 38.4805 37.8438 39.3421 37.8438C39.7686 37.8437 40.191 37.9278 40.5851 38.091C40.9792 38.2543 41.3373 38.4935 41.6389 38.7952L43.75 40.9063L45.8611 38.7952C46.1627 38.4935 46.5208 38.2543 46.9149 38.091C47.309 37.9278 47.7314 37.8437 48.1579 37.8438C49.0195 37.8438 49.8457 38.186 50.4548 38.7952C51.064 39.4043 51.4063 40.2305 51.4062 41.0921C51.4063 41.5186 51.3222 41.941 51.159 42.3351C50.9957 42.7292 50.7565 43.0873 50.4548 43.3889Z" fill="#E82F3E"/>
<path d="M30.2148 27.3438C31.0454 27.3438 31.7188 26.6704 31.7188 25.8398C31.7188 25.0093 31.0454 24.3359 30.2148 24.3359C29.3843 24.3359 28.7109 25.0093 28.7109 25.8398C28.7109 26.6704 29.3843 27.3438 30.2148 27.3438Z" fill="#D18D28"/>
<path d="M27.2422 35.5058L32.1072 35.0635C32.3233 35.0439 32.5308 34.9694 32.71 34.847C32.8892 34.7247 33.0342 34.5586 33.1312 34.3645C33.2111 34.2049 33.3311 34.0689 33.4795 33.9698C33.6279 33.8708 33.7995 33.812 33.9775 33.7994C34.1555 33.7868 34.3336 33.8208 34.4945 33.898C34.6554 33.9752 34.7934 34.0929 34.8949 34.2397C35.0079 34.4031 35.0711 34.5958 35.0768 34.7945C35.0825 34.9931 35.0305 35.1892 34.927 35.3588C34.6814 35.7616 34.3472 36.103 33.9497 36.3571C33.5523 36.6112 33.1021 36.7713 32.6334 36.8251L27.3451 37.4329L27.2422 35.5058Z" fill="#D18D28"/>
<path d="M47.0326 29.015C47.0326 30.1754 46.5717 31.2882 45.7512 32.1086C44.9307 32.9291 43.8179 33.39 42.6576 33.39C41.4973 33.39 40.3845 32.9291 39.564 32.1086C38.7436 31.2882 38.2826 30.1754 38.2826 29.015V26.7291C38.2825 24.9847 37.8085 23.2731 36.9113 21.7771L35.7971 19.9205C35.3255 19.1349 34.7694 18.4032 34.1387 17.7385C34.2152 17.7357 34.2904 17.7344 34.367 17.7344C34.8371 17.7341 35.306 17.7803 35.767 17.8725C38.1463 18.3481 40.3976 19.3234 42.3719 20.734L43.0021 21.1852C43.2551 21.3656 43.498 21.5579 43.7309 21.7621C44.7678 22.6647 45.5991 23.7792 46.1686 25.0303C46.7382 26.2815 47.0328 27.6403 47.0326 29.015Z" fill="#D18D28"/>
<path d="M19.6472 32.1098L18.5945 32.8125L17.781 31.593C17.6091 31.3348 17.494 31.043 17.4434 30.737C17.3928 30.431 17.4078 30.1177 17.4874 29.8179C17.5671 29.5181 17.7095 29.2386 17.9053 28.9981C18.1011 28.7575 18.3458 28.5613 18.6232 28.4225L20.7751 27.3465L20.782 27.3438L21.0294 28.0848C21.2722 28.8144 21.2685 29.6036 21.0187 30.3309C20.769 31.0582 20.2871 31.6832 19.6472 32.1098Z" fill="#D18D28"/>
<path d="M37.1872 56.875L37.4818 56.9592C39.6026 57.5652 41.4684 58.8455 42.7966 60.6064C44.1249 62.3674 44.8434 64.513 44.8434 66.7188V66.8555H17.4997L16.8381 64.5687C15.6739 60.7852 15.3451 56.794 15.8745 52.871C16.4038 48.948 17.7786 45.1867 19.9039 41.847L20.7809 40.4688L21.034 39.9629C21.6152 38.8003 22.5087 37.8226 23.6143 37.1392C24.7199 36.4558 25.994 36.0938 27.2938 36.0938H27.3434V40.4688L31.1547 42.3745C32.0113 42.8028 32.7588 43.421 33.3401 44.1821C33.9214 44.9432 34.3213 45.827 34.5091 46.7662L34.9997 49.2188L35.1105 49.3296C35.6815 49.9006 36.0219 50.6621 36.0665 51.4684C36.1112 52.2746 35.857 53.069 35.3525 53.6996L34.9997 54.1406L37.1872 56.875Z" fill="#FBFDFF"/>
<path d="M29.8753 57.969C28.9287 57.9716 27.9909 57.7864 27.1164 57.4241C26.2418 57.0619 25.4478 56.5298 24.7803 55.8586L24.3829 55.4611C24.1777 55.256 24.0625 54.9778 24.0625 54.6877C24.0625 54.3976 24.1777 54.1194 24.3829 53.9143C24.588 53.7092 24.8662 53.5939 25.1563 53.5939C25.4464 53.5939 25.7246 53.7092 25.9297 53.9143L26.3271 54.3117C26.8261 54.8108 27.4247 55.1989 28.0839 55.4508C28.7431 55.7028 29.448 55.8128 30.1527 55.7738C30.8573 55.7348 31.5457 55.5476 32.1731 55.2244C32.8004 54.9012 33.3525 54.4494 33.7933 53.8983L34.1459 53.4572C34.3272 53.2307 34.5911 53.0855 34.8795 53.0535C35.1678 53.0216 35.4571 53.1055 35.6836 53.2868C35.9101 53.4681 36.0554 53.7319 36.0873 54.0203C36.1193 54.3087 36.0354 54.5979 35.8541 54.8244L35.5014 55.2652C34.8281 56.1109 33.9723 56.7933 32.998 57.2615C32.0237 57.7297 30.9562 57.9716 29.8753 57.969Z" fill="#CBCBCB"/>
<path d="M29.5312 49.6289C30.3618 49.6289 31.0352 48.9556 31.0352 48.125C31.0352 47.2944 30.3618 46.6211 29.5312 46.6211C28.7007 46.6211 28.0273 47.2944 28.0273 48.125C28.0273 48.9556 28.7007 49.6289 29.5312 49.6289Z" fill="#CBCBCB"/>
<path d="M48.1581 36.75C47.5877 36.7484 47.0227 36.86 46.4957 37.0782C45.9687 37.2965 45.4902 37.6171 45.088 38.0215L43.7502 39.3596L42.4125 38.0219C42.0093 37.6187 41.5307 37.2988 41.0039 37.0806C40.4771 36.8624 39.9125 36.7501 39.3422 36.75C38.772 36.75 38.2074 36.8623 37.6806 37.0805C37.1538 37.2987 36.6751 37.6185 36.2719 38.0217C35.8687 38.4249 35.5488 38.9036 35.3306 39.4304C35.1123 39.9572 35 40.5218 35 41.092C35 41.6622 35.1123 42.2268 35.3305 42.7537C35.5487 43.2805 35.8685 43.7591 36.2717 44.1624L42.9765 50.8673C43.0781 50.9689 43.1986 51.0495 43.3313 51.1044C43.464 51.1594 43.6063 51.1877 43.7499 51.1877C43.8935 51.1877 44.0358 51.1594 44.1685 51.1044C44.3012 51.0495 44.4218 50.9689 44.5233 50.8673L51.2287 44.1624C51.836 43.5551 52.2495 42.7814 52.417 41.9391C52.5846 41.0968 52.4986 40.2237 52.1699 39.4303C51.8412 38.6369 51.2846 37.9588 50.5705 37.4817C49.8565 37.0046 49.0169 36.75 48.1581 36.75ZM49.6817 42.6153L43.7502 48.5471L37.8186 42.6153C37.4237 42.2094 37.2045 41.6643 37.2084 41.098C37.2123 40.5317 37.439 39.9897 37.8394 39.5893C38.2399 39.1888 38.7819 38.9622 39.3482 38.9583C39.9145 38.9544 40.4595 39.1737 40.8654 39.5686L42.9765 41.6797C43.0781 41.7813 43.1986 41.8618 43.3313 41.9168C43.464 41.9718 43.6063 42.0001 43.7499 42.0001C43.8935 42.0001 44.0358 41.9718 44.1685 41.9168C44.3012 41.8618 44.4218 41.7813 44.5233 41.6797L46.635 39.5685C47.0406 39.1724 47.5861 38.9522 48.153 38.9556C48.72 38.9589 49.2627 39.1857 49.6636 39.5866C50.0645 39.9875 50.2913 40.5302 50.2946 41.0972C50.298 41.6641 50.0778 42.2096 49.6817 42.6153Z" fill="black"/>
<path d="M65.0889 19.8403L35.5577 2.34025C35.3884 2.23994 35.1951 2.18716 34.9983 2.1875C34.8015 2.18784 34.6084 2.24127 34.4395 2.34216L4.9082 19.9681C4.74566 20.0651 4.61107 20.2026 4.51761 20.3672C4.42415 20.5319 4.37501 20.7179 4.375 20.9072V66.8447C4.375 67.1348 4.49023 67.413 4.69535 67.6181C4.90047 67.8232 5.17867 67.9385 5.46875 67.9385H5.47107L64.5336 67.8125C64.8233 67.8119 65.1009 67.6964 65.3055 67.4914C65.5101 67.2863 65.625 67.0085 65.625 66.7188V20.7813C65.625 20.5914 65.5755 20.4048 65.4815 20.2398C65.3875 20.0748 65.2522 19.9371 65.0889 19.8403ZM26.25 37.2789V40.4688C26.25 40.6719 26.3066 40.871 26.4133 41.0438C26.5201 41.2165 26.6729 41.3562 26.8546 41.447L30.666 43.3527C31.3752 43.7045 31.9939 44.2146 32.4744 44.8437C32.9549 45.4728 33.2843 46.204 33.437 46.9807L33.9276 49.4333C33.9699 49.645 34.074 49.8395 34.2267 49.9922L34.3376 50.1031C34.7187 50.4835 34.946 50.9912 34.9757 51.5288C35.0055 52.0665 34.8357 52.5962 34.4989 53.0163L34.1463 53.4571L33.7937 53.8978C33.3529 54.4489 32.8008 54.9008 32.1734 55.224C31.5461 55.5471 30.8576 55.7343 30.153 55.7734C29.4484 55.8124 28.7435 55.7023 28.0843 55.4504C27.4251 55.1985 26.8265 54.8103 26.3275 54.3113L25.9301 53.9138C25.725 53.7087 25.4467 53.5935 25.1567 53.5935C24.8666 53.5935 24.5884 53.7087 24.3832 53.9138C24.1781 54.119 24.0629 54.3972 24.0629 54.6873C24.0629 54.9774 24.1781 55.2556 24.3832 55.4607L24.7807 55.8581C25.4499 56.5274 26.2444 57.0583 27.1189 57.4204C27.9933 57.7825 28.9305 57.9688 29.877 57.9686C30.8235 57.9685 31.7606 57.7818 32.6349 57.4194C33.5092 57.0569 34.3035 56.5257 34.9725 55.8562L36.3334 57.5586C36.4753 57.736 36.6689 57.8648 36.8873 57.9271L37.1816 58.0113C38.891 58.5059 40.4178 59.4906 41.5733 60.8439C42.7288 62.1971 43.4623 63.8593 43.683 65.625H18.308L17.8842 64.247C16.764 60.6152 16.447 56.7833 16.9552 53.0168C17.4634 49.2503 18.7846 45.6393 20.8272 42.4343L21.7044 41.056C21.7245 41.0243 21.7431 40.9916 21.7599 40.958L22.0129 40.4521C22.4212 39.6282 23.0173 38.9117 23.7533 38.3605C24.4893 37.8093 25.3445 37.4388 26.25 37.2789ZM37.8235 55.9194L36.3936 54.1319C36.9572 53.3153 37.2262 52.3312 37.1563 51.3415C37.0864 50.3517 36.6817 49.4152 36.0088 48.686L35.582 46.5515C35.3649 45.4478 34.8969 44.4089 34.2141 43.5149C33.5314 42.621 32.6522 41.8961 31.6445 41.3961L28.4375 39.7929V36.496L32.9115 36.0893C33.097 36.0724 33.2752 36.0084 33.429 35.9034C33.5829 35.7984 33.7074 35.6558 33.7907 35.4892L34.8845 33.3017C35.0115 33.0426 35.031 32.7437 34.9387 32.4703C34.8464 32.1969 34.6498 31.971 34.3916 31.8419C34.1335 31.7128 33.8348 31.691 33.5607 31.7812C33.2865 31.8714 33.0591 32.0662 32.928 32.3234L32.1066 33.966L21.3303 34.9453L20.1105 33.1155L20.2537 33.0198C21.0679 32.4748 21.6874 31.6846 22.0222 30.7638C22.357 29.843 22.3897 28.8394 22.1156 27.8987L25.6454 26.1338C25.885 26.014 26.0723 25.8105 26.1718 25.5618L27.5116 22.2122C27.7178 21.6954 28.0343 21.2298 28.4392 20.8481C28.844 20.4664 29.3273 20.1776 29.8553 20.0021L32.4529 19.1361C32.8524 19.0038 33.2645 18.9136 33.6827 18.8669C34.1205 19.3701 34.5136 19.9103 34.8577 20.4816L35.9717 22.3384C36.7674 23.6645 37.1876 25.182 37.1875 26.7286V29.0154C37.1875 30.4658 37.7637 31.8568 38.7893 32.8824C39.8148 33.908 41.2058 34.4842 42.6562 34.4842C44.1067 34.4842 45.4977 33.908 46.5232 32.8824C47.5488 31.8568 48.125 30.4658 48.125 29.0154C48.1248 28.5721 48.097 28.1292 48.0416 27.6893C48.4797 28.255 48.8986 28.8372 49.2986 29.4359C52.8595 34.7901 55.1103 40.9073 55.8688 47.2927C56.5266 52.8281 56.036 58.4396 54.4277 63.7769L53.8672 65.6477L45.8858 65.6648C45.6674 63.4215 44.7829 61.2948 43.3462 59.5582C41.9095 57.8215 39.9862 56.5543 37.8235 55.9194ZM18.6908 30.9864C18.6048 30.8573 18.5472 30.7115 18.5218 30.5585C18.4965 30.4055 18.504 30.2488 18.5438 30.0989C18.5836 29.949 18.6548 29.8093 18.7528 29.6891C18.8507 29.5688 18.9731 29.4708 19.1118 29.4014L20.0962 28.9092C20.1482 29.3512 20.0772 29.799 19.891 30.2032C19.7047 30.6074 19.4106 30.9524 19.0408 31.2001L18.8978 31.2958L18.6908 30.9864ZM43.0566 22.6253C43.961 23.4263 44.6854 24.4099 45.182 25.5113C45.6786 26.6126 45.9361 27.8068 45.9375 29.0149C45.9396 29.6247 45.7708 30.2229 45.4502 30.7416C45.1296 31.2603 44.6701 31.6788 44.1238 31.9497C43.6678 32.1763 43.1655 32.2942 42.6563 32.2942C42.1471 32.2942 41.6448 32.1763 41.1888 31.9497C40.6425 31.6789 40.1829 31.2604 39.8623 30.7416C39.5417 30.2229 39.3729 29.6247 39.375 29.0149V26.7286C39.3749 24.7862 38.847 22.8803 37.8477 21.2147L36.7337 19.3579C36.702 19.3051 36.6673 19.2541 36.6349 19.2018C38.4653 19.6992 40.1923 20.5193 41.7345 21.6236C42.1857 21.9456 42.6264 22.2795 43.0566 22.6253ZM63.4375 65.6274L56.1522 65.6428L56.5234 64.4055C58.2176 58.7819 58.7343 52.8694 58.0409 47.0372C57.2421 40.3092 54.8709 33.8636 51.1191 28.2219C49.2876 25.4716 47.0437 23.0195 44.4664 20.9516C44.2023 20.7203 43.9262 20.5005 43.6376 20.2942C43.6042 20.2704 43.5694 20.2485 43.5336 20.2287C43.3591 20.0988 43.1837 19.9697 43.0064 19.8431C40.908 18.3398 38.5127 17.3021 35.9808 16.7995C34.5756 16.5189 33.1215 16.6095 31.762 17.0621L29.1643 17.928C28.3346 18.2037 27.5751 18.6574 26.9389 19.2572C26.3028 19.857 25.8053 20.5885 25.4812 21.4006L24.2949 24.364L18.1331 27.4448C17.717 27.6529 17.3499 27.9471 17.0561 28.3079C16.7623 28.6687 16.5487 29.0878 16.4292 29.5375C16.3098 29.9871 16.2874 30.4571 16.3635 30.9161C16.4395 31.3751 16.6123 31.8126 16.8704 32.1998L17.6832 33.4187L19.8707 36.7C19.9799 36.8638 20.1313 36.995 20.3089 37.08C20.4864 37.1649 20.6837 37.2003 20.8797 37.1825L21.8535 37.0939C21.1126 37.7692 20.503 38.5757 20.0555 39.4728L19.8276 39.9286L18.9808 41.2592C16.7679 44.7313 15.3366 48.6431 14.7861 52.7235C14.2355 56.8039 14.579 60.9552 15.7925 64.8896L16.0504 65.7277L6.5625 65.7481V21.5282L35.0021 4.55386L63.4375 21.4046V65.6274Z" fill="black"/>
<path d="M29.5312 49.6289C30.3618 49.6289 31.0352 48.9556 31.0352 48.125C31.0352 47.2944 30.3618 46.6211 29.5312 46.6211C28.7007 46.6211 28.0273 47.2944 28.0273 48.125C28.0273 48.9556 28.7007 49.6289 29.5312 49.6289Z" fill="black"/>
<path d="M30.2148 27.3438C31.0454 27.3438 31.7188 26.6704 31.7188 25.8398C31.7188 25.0093 31.0454 24.3359 30.2148 24.3359C29.3843 24.3359 28.7109 25.0093 28.7109 25.8398C28.7109 26.6704 29.3843 27.3438 30.2148 27.3438Z" fill="black"/>
</svg>
