<svg width="70" height="70" viewBox="0 0 70 70" fill="none" xmlns="http://www.w3.org/2000/svg">
<path d="M35.0002 60.813C20.7659 60.813 9.18555 49.2326 9.18555 34.9983C9.18555 20.7639 20.7659 9.18359 35.0002 9.18359C41.8955 9.18359 48.3782 11.8688 53.2538 16.7444L50.3537 19.6448C46.2525 15.5437 40.7998 13.2852 35.0002 13.2852C23.0275 13.2852 13.2871 23.0255 13.2871 34.9983C13.2871 46.971 23.0275 56.7114 35.0002 56.7114C46.973 56.7114 56.7134 46.971 56.7134 34.9983H60.8149C60.8149 49.2326 49.2346 60.813 35.0002 60.813Z" fill="#4EA3DA"/>
<path d="M35.0002 56.7131C23.3485 56.7131 13.8146 47.4871 13.3114 35.957C13.2975 36.2745 13.2871 36.593 13.2871 36.9141C13.2871 48.8868 23.0275 58.6272 35.0002 58.6272C46.973 58.6272 56.7134 48.8868 56.7134 36.9141H60.7438C60.7903 36.2819 60.8149 35.6439 60.8149 35H56.7134C56.7134 46.9727 46.973 56.7131 35.0002 56.7131Z" fill="white"/>
<path d="M35.0002 11.0977C41.4424 11.0977 47.5239 13.4421 52.2719 17.7266L53.2538 16.7447C48.3782 11.8687 41.8955 9.18359 35.0002 9.18359C20.7659 9.18359 9.18555 20.7639 9.18555 34.9983C9.18555 35.3188 9.19348 35.6376 9.20524 35.9553C9.71055 22.1629 21.0866 11.0977 35.0002 11.0977Z" fill="white"/>
<path d="M57.8322 24.2111H45.8516L57.8322 12.2305V24.2111Z" fill="#4EA3DA"/>
<path d="M45.8516 24.2111H48.5859L57.8322 14.9648V12.2305L45.8516 24.2111Z" fill="white"/>
<path d="M30.7435 37.4773C31.9119 36.1552 32.7133 35.0686 33.1927 34.155C33.7026 33.1832 33.961 32.2552 33.961 31.3966C33.961 29.8746 33.4661 28.6406 32.4899 27.7298C31.5326 26.8359 30.222 26.3828 28.5948 26.3828C27.527 26.3828 26.5544 26.6248 25.704 27.1017C24.84 27.5865 24.1638 28.2654 23.6943 29.1199C23.2335 29.958 23 30.8951 23 31.9049V32.8619H26.1489V31.9049C26.1489 31.1171 26.3685 30.5063 26.8202 30.037C27.2621 29.5782 27.8426 29.3551 28.5948 29.3551C29.3205 29.3551 29.8567 29.5372 30.2338 29.9121C30.6092 30.2853 30.7919 30.8048 30.7919 31.5002C30.7919 31.9519 30.6601 32.4359 30.4006 32.939C30.105 33.5119 29.5472 34.2726 28.7485 35.1938L23.3322 41.3374V43.6107H34.7083V40.6486H27.9383L30.7435 37.4773Z" fill="#FFCC34"/>
<path d="M23.694 30.7605C24.1635 29.9061 24.8397 29.2271 25.7038 28.7423C26.5541 28.2652 27.5268 28.0234 28.5945 28.0234C30.2218 28.0234 31.5323 28.4765 32.4896 29.3704C33.2684 30.0972 33.7354 31.0323 33.8948 32.1523C33.9372 31.8953 33.961 31.6427 33.961 31.3966C33.961 29.8746 33.4661 28.6406 32.4899 27.7298C31.5326 26.8359 30.222 26.3828 28.5948 26.3828C27.527 26.3828 26.5544 26.6248 25.704 27.1017C24.84 27.5865 24.1638 28.2654 23.6943 29.1199C23.2335 29.958 23 30.8951 23 31.9049V32.8619H23.0383C23.1206 32.1108 23.3391 31.4061 23.694 30.7605Z" fill="white"/>
<path d="M27.0625 40.6484L25.6113 42.2891H34.7089V40.6484H27.0625Z" fill="white"/>
<path d="M30.4004 34.5813C30.6602 34.0782 30.7917 33.5942 30.7917 33.1425C30.7917 32.8157 30.7498 32.5295 30.6681 32.2773C30.6036 32.4942 30.5166 32.7151 30.4004 32.9407C30.1048 33.5136 29.547 34.2743 28.7483 35.1955L23.332 41.3391V42.9797L28.7483 36.8361C29.547 35.9149 30.1045 35.1545 30.4004 34.5813Z" fill="white"/>
<path d="M44.6468 36.8301V26.5898H41.8159L34.3809 37.8418V39.792H41.4878V43.61H44.6468V39.792H47.0019V36.8298H44.6468V36.8301ZM41.4878 32.4767V36.8301H38.6345L41.4878 32.4767Z" fill="#FFCC34"/>
<path d="M42.162 38.4688V36.8281H37.8039L36.7285 38.4688H42.162Z" fill="white"/>
<path d="M44.6468 28.2305V26.5898H41.8159L34.3809 37.8418V39.4824L41.8159 28.2305H44.6468Z" fill="white"/>
<path d="M47.0014 36.8281H43.9551V38.4688H47.0014V36.8281Z" fill="white"/>
<path d="M56.0298 34.3147V34.9983C56.0298 46.5939 46.5959 56.0278 35.0002 56.0278C23.4046 56.0278 13.9707 46.5939 13.9707 34.9983C13.9707 23.4026 23.4046 13.9688 35.0002 13.9688C40.4039 13.9688 45.4967 15.9933 49.4126 19.6833L47.7859 21.31C47.7687 21.2939 47.7514 21.2777 47.7342 21.2616L46.804 22.2635C46.8089 22.2681 46.8138 22.2728 46.8185 22.2771L44.2011 24.8945H58.5159V10.58L53.2806 15.8153C48.3314 11.0927 41.8652 8.5 35.0002 8.5C20.3888 8.5 8.50195 20.3871 8.50195 34.9983C8.50195 49.6094 20.3888 61.4966 35.0002 61.4966C49.6116 61.4966 61.4985 49.6094 61.4985 34.9983V34.3147H56.0298ZM57.1487 23.5276H47.5018L57.1487 13.881V23.5276ZM35.0002 60.1294C21.1427 60.1294 9.86914 48.8558 9.86914 34.9983C9.86914 21.1407 21.1427 9.86719 35.0002 9.86719C41.4848 9.86719 47.5942 12.3063 52.2807 16.751L50.3466 18.6853C46.177 14.7571 40.7539 12.6016 35.0002 12.6016C22.6507 12.6016 12.6035 22.6488 12.6035 34.9983C12.6035 47.3478 22.6507 57.395 35.0002 57.395C47.1214 57.395 57.0245 47.717 57.3866 35.6819H60.1223C59.7592 49.2247 48.6292 60.1294 35.0002 60.1294Z" fill="#122436"/>
<path d="M47.6862 36.147H45.3311V25.9068H41.4488L33.6977 37.637V39.9653H29.4556L31.2556 37.9304V37.9301C32.4615 36.5659 33.293 35.435 33.798 34.4727C34.3597 33.402 34.6446 32.367 34.6446 31.3966C34.6446 29.6772 34.0767 28.2753 32.9564 27.2302C31.8684 26.2144 30.4009 25.6992 28.5948 25.6992C27.4086 25.6992 26.3234 25.9705 25.3693 26.5056C24.3921 27.0538 23.627 27.8227 23.0954 28.7907C22.5784 29.7308 22.3164 30.7783 22.3164 31.9049V33.5455H26.8325V31.9049C26.8325 31.2943 26.9851 30.8513 27.3127 30.5112C27.623 30.1888 28.0304 30.0387 28.5948 30.0387C29.131 30.0387 29.5095 30.156 29.752 30.3969C29.9048 30.5489 30.1086 30.8289 30.1086 31.5002C30.1086 31.8412 30.0025 32.2199 29.7933 32.6254C29.6068 32.9863 29.1846 33.6472 28.2361 34.7415L22.6489 41.0787V44.2938H35.3922V40.4763H40.8054V44.2943H45.3316V40.4763H47.6868V36.147H47.6862ZM34.0245 42.9269H24.0155V41.5955L29.2645 35.6414C30.1004 34.6775 30.6866 33.8739 31.0076 33.2524C31.318 32.6511 31.4752 32.0616 31.4752 31.4999C31.4752 30.6255 31.2195 29.9279 30.7153 29.4267C30.2037 28.9184 29.51 28.6712 28.5945 28.6712C27.6594 28.6712 26.8968 28.9712 26.3275 29.5626C25.7552 30.1568 25.465 30.9448 25.465 31.9046V32.178H23.6833V31.9046C23.6833 31.011 23.8884 30.185 24.2931 29.4489C24.6997 28.7081 25.287 28.1189 26.0379 27.6975C26.7849 27.2786 27.6452 27.0659 28.5945 27.0659C30.0432 27.0659 31.1968 27.4571 32.0232 28.2291C32.8552 29.0054 33.2771 30.0709 33.2771 31.396C33.2771 32.1428 33.045 32.9642 32.5873 33.8367C32.1342 34.7005 31.3634 35.7431 30.2313 37.0239L26.421 41.3322H34.0245V42.9269ZM46.319 39.1091H43.9639V42.9271H42.1721V39.1091H35.0649V38.0479L42.1841 27.2739H43.9639V37.5142H46.319V39.1091Z" fill="#122436"/>
<path d="M42.1715 37.5143V30.1875L37.3691 37.5143H42.1715ZM40.8043 36.1471H39.8998L40.8043 34.7673V36.1471Z" fill="#122436"/>
<path d="M38.689 53.3626C39.1505 53.2699 39.6143 53.1583 40.0668 53.0312L39.6966 51.7148C39.2771 51.833 38.8476 51.9363 38.4199 52.0222L38.689 53.3626Z" fill="#122436"/>
<path d="M35.5934 53.7186C36.0648 53.7038 36.5404 53.671 37.0068 53.6213L36.8616 52.2617C36.4291 52.3079 35.988 52.3386 35.5508 52.3522L35.5934 53.7186Z" fill="#122436"/>
<path d="M30.81 53.2568L31.1159 51.9244C30.6905 51.8268 30.2639 51.7116 29.8477 51.582L29.4414 52.8874C29.8904 53.0274 30.3509 53.1516 30.81 53.2568Z" fill="#122436"/>
<path d="M41.6828 52.4966C42.1214 52.3284 42.5603 52.1409 42.9868 51.9391L42.402 50.7031C42.0068 50.8902 41.6 51.0641 41.1934 51.2199L41.6828 52.4966Z" fill="#122436"/>
<path d="M27.8432 52.3076L28.3671 51.0449C27.9651 50.8781 27.5637 50.6932 27.1746 50.4961L26.5566 51.7156C26.9764 51.9281 27.4092 52.1274 27.8432 52.3076Z" fill="#122436"/>
<path d="M25.0757 50.8779L25.802 49.7196C25.432 49.4877 25.0667 49.2391 24.7161 48.9805L23.9043 50.0805C24.283 50.3597 24.677 50.6279 25.0757 50.8779Z" fill="#122436"/>
<path d="M33.895 53.6978L33.9746 52.3331C33.5387 52.3077 33.0988 52.2653 32.667 52.207L32.4844 53.5619C32.95 53.6248 33.4247 53.6705 33.895 53.6978Z" fill="#122436"/>
<path d="M51.7479 43.3795L50.5264 42.7656C50.3304 43.1555 50.1171 43.5425 49.8926 43.916L51.0643 44.6206C51.3065 44.2179 51.5365 43.8 51.7479 43.3795Z" fill="#122436"/>
<path d="M48.2051 46.2605L49.2444 47.1486C49.5512 46.7896 49.8471 46.4158 50.1238 46.0374L49.0205 45.2305C48.7637 45.581 48.4895 45.9277 48.2051 46.2605Z" fill="#122436"/>
<path d="M52.9098 40.4904L51.6025 40.0898C51.4756 40.5044 51.3302 40.9211 51.1699 41.328L52.4425 41.8281C52.6153 41.3884 52.7725 40.9383 52.9098 40.4904Z" fill="#122436"/>
<path d="M43.7949 49.964L44.4892 51.1417C44.8944 50.903 45.2955 50.6454 45.6825 50.3758L44.9007 49.2539C44.542 49.5038 44.1701 49.7425 43.7949 49.964Z" fill="#122436"/>
<path d="M53.5719 37.4478L52.2165 37.2695C52.1591 37.7048 52.085 38.1407 51.9961 38.5645L53.334 38.8451C53.43 38.3876 53.5098 37.9176 53.5719 37.4478Z" fill="#122436"/>
<path d="M39.5995 16.832L39.2656 18.1579C39.6889 18.2646 40.1133 18.3884 40.5264 18.5268L40.9601 17.2302C40.5141 17.0811 40.0561 16.9471 39.5995 16.832Z" fill="#122436"/>
<path d="M17.2188 29.1035L18.5159 29.5345C18.6532 29.1218 18.808 28.7084 18.977 28.3059L17.7161 27.7773C17.5338 28.2121 17.3667 28.6581 17.2188 29.1035Z" fill="#122436"/>
<path d="M31.7251 16.5547C31.2616 16.6367 30.7954 16.7379 30.3398 16.8549L30.68 18.1792C31.1022 18.0706 31.5339 17.9771 31.9635 17.9011L31.7251 16.5547Z" fill="#122436"/>
<path d="M34.8252 16.2695C34.3532 16.2739 33.8772 16.2963 33.4102 16.3357L33.525 17.698C33.9584 17.6613 34.4 17.6408 34.838 17.6367L34.8252 16.2695Z" fill="#122436"/>
<path d="M26.542 19.8373L25.874 18.6445C25.4641 18.8739 25.0573 19.1225 24.6641 19.3836L25.4204 20.5228C25.7849 20.2805 26.1622 20.0503 26.542 19.8373Z" fill="#122436"/>
<path d="M42.5473 17.8438L41.9961 19.095C42.395 19.2705 42.7923 19.4641 43.1771 19.67L43.8221 18.4647C43.4068 18.2421 42.9777 18.0332 42.5473 17.8438Z" fill="#122436"/>
<path d="M45.2843 19.3359L44.5312 20.477C44.8952 20.7171 45.2548 20.9746 45.6007 21.2421L46.4371 20.1606C46.0647 19.8724 45.677 19.5949 45.2843 19.3359Z" fill="#122436"/>
<path d="M36.5248 16.3281L36.416 17.6909C36.8521 17.7257 37.291 17.7776 37.7209 17.8446L37.9322 16.4941C37.4685 16.4216 36.9952 16.3659 36.5248 16.3281Z" fill="#122436"/>
<path d="M48.082 48.3921L47.1266 47.4141C46.8135 47.7198 46.4859 48.017 46.1523 48.297L47.032 49.3437C47.3913 49.0416 47.7446 48.7214 48.082 48.3921Z" fill="#122436"/>
<path d="M24.1479 21.4529L23.2918 20.3867C22.9243 20.6818 22.5639 20.994 22.2207 21.3148L23.1542 22.3136C23.4725 22.0161 23.8066 21.7266 24.1479 21.4529Z" fill="#122436"/>
<path d="M28.7134 17.3555C28.269 17.5143 27.8261 17.6921 27.3965 17.8837L27.9535 19.1323C28.3516 18.9545 28.762 18.7899 29.1738 18.6428L28.7134 17.3555Z" fill="#122436"/>
<path d="M17.9135 38.0968C17.8361 37.6689 17.7738 37.2314 17.7292 36.7969L16.3691 36.9371C16.4175 37.4064 16.4845 37.8786 16.5682 38.3407L17.9135 38.0968Z" fill="#122436"/>
<path d="M16.2695 34.9975C16.2695 35.0788 16.2701 35.16 16.2712 35.2409L17.6384 35.2223C17.6373 35.1477 17.6367 35.0727 17.6367 34.9978C17.6367 34.635 17.6479 34.2688 17.6704 33.909L16.3059 33.8242C16.2818 34.2117 16.2695 34.6065 16.2695 34.9975Z" fill="#122436"/>
<path d="M22.5851 49.0094L23.4918 47.9862C23.1662 47.6975 22.8468 47.392 22.5422 47.0781L21.5605 48.03C21.8889 48.3682 22.2338 48.698 22.5851 49.0094Z" fill="#122436"/>
<path d="M18.6639 40.8843C18.5154 40.4739 18.3812 40.0528 18.2647 39.6328L16.9473 39.9984C17.073 40.4515 17.218 40.9059 17.3779 41.3489L18.6639 40.8843Z" fill="#122436"/>
<path d="M16.4883 32.1334L17.8393 32.3423C17.9063 31.9092 17.9903 31.4753 18.0887 31.0528L16.7573 30.7422C16.6513 31.1983 16.5605 31.6664 16.4883 32.1334Z" fill="#122436"/>
<path d="M20.3123 25.7462L19.1565 25.0156C18.9055 25.4129 18.6663 25.825 18.4453 26.2409L19.6528 26.8821C19.8576 26.4968 20.0796 26.1146 20.3123 25.7462Z" fill="#122436"/>
<path d="M19.8698 43.5124C19.6549 43.1315 19.4523 42.7383 19.2671 42.3438L18.0293 42.924C18.2286 43.3497 18.4474 43.7738 18.6795 44.1845L19.8698 43.5124Z" fill="#122436"/>
<path d="M21.4945 45.9007C21.2188 45.5594 20.9536 45.2053 20.7067 44.8477L19.582 45.6253C19.8486 46.0106 20.1344 46.3926 20.4313 46.7598L21.4945 45.9007Z" fill="#122436"/>
<path d="M21.0323 22.5312C20.7193 22.8815 20.4155 23.2488 20.1289 23.6223L21.2136 24.4543C21.4797 24.1076 21.7616 23.7672 22.0517 23.4421L21.0323 22.5312Z" fill="#122436"/>
<path d="M44.291 58.5573C45.1144 53.4279 41.6236 48.6021 36.4941 47.7787C31.3646 46.9553 26.5389 50.4461 25.7155 55.5756C24.8921 60.705 28.3829 65.5308 33.5123 66.3542C38.6418 67.1776 43.4676 63.6868 44.291 58.5573Z" fill="#4EA3DA"/>
<path d="M34.9997 67.156C29.4361 67.156 24.9102 62.6298 24.9102 57.0664C24.9102 51.5028 29.4364 46.9766 34.9997 46.9766C40.5631 46.9766 45.0893 51.5028 45.0893 57.0664C45.0893 62.6298 40.5634 67.156 34.9997 67.156ZM34.9997 48.3438C30.19 48.3438 26.2773 52.2566 26.2773 57.0664C26.2773 61.8759 30.1902 65.7888 34.9997 65.7888C39.8092 65.7888 43.7221 61.8759 43.7221 57.0664C43.7221 52.2566 39.8095 48.3438 34.9997 48.3438Z" fill="#122436"/>
<path d="M36.4327 62.6818L35.503 62.4401C35.1724 62.3543 34.8276 62.3543 34.4973 62.4401L33.5676 62.6818C32.225 63.0307 30.9316 61.9411 30.9316 60.4607C30.9316 58.0531 32.7533 56.1016 35.0004 56.1016C37.2475 56.1016 39.0691 58.0534 39.0691 60.4607C39.0689 61.9411 37.7755 63.0307 36.4327 62.6818Z" fill="white"/>
<path d="M31.0359 54.6489C31.5604 55.3869 31.5888 56.3021 31.0996 56.6926C30.6104 57.0833 29.7888 56.8014 29.2643 56.0634C28.7399 55.3254 28.7114 54.4102 29.2006 54.0198C29.6898 53.629 30.5115 53.9107 31.0359 54.6489Z" fill="white"/>
<path d="M34.3126 52.8834C34.5601 53.8774 34.2268 54.8325 33.5681 55.0168C32.9094 55.2011 32.1749 54.5448 31.9274 53.5512C31.68 52.5572 32.0133 51.6021 32.672 51.4178C33.3305 51.2332 34.0652 51.8895 34.3126 52.8834Z" fill="white"/>
<path d="M38.9655 54.6489C38.441 55.3869 38.4126 56.3021 38.9018 56.6926C39.391 57.0833 40.2126 56.8014 40.7371 56.0634C41.2615 55.3254 41.29 54.4102 40.8008 54.0198C40.3116 53.629 39.4899 53.9107 38.9655 54.6489Z" fill="white"/>
<path d="M35.6892 52.8834C35.4417 53.8774 35.775 54.8325 36.4337 55.0168C37.0924 55.2011 37.8269 54.5448 38.0744 53.5512C38.3218 52.5572 37.9885 51.6021 37.3298 51.4178C36.6713 51.2332 35.9366 51.8895 35.6892 52.8834Z" fill="white"/>
</svg>
