<svg width="70" height="70" viewBox="0 0 70 70" fill="none" xmlns="http://www.w3.org/2000/svg">
<g clip-path="url(#clip0_6881_34103)">
<path d="M55.4626 8.03906L47.2969 16.2048C48.2534 17.1613 52.9392 21.8471 53.8957 22.8036L62.0614 14.6379C61.1049 13.6814 56.4191 8.99556 55.4626 8.03906Z" fill="#D1D0CF"/>
<path d="M50.9108 17.0844C50.4249 16.5984 50.4249 15.8112 50.9108 15.3252L56.8293 9.40625C56.2103 8.78674 55.7104 8.2874 55.4626 8.03906L47.2969 16.2048C48.2534 17.1613 52.9392 21.8471 53.8957 22.8036L55.2623 21.4364C53.94 20.1141 52.0681 18.2417 50.9108 17.0844Z" fill="#AFAFAF"/>
<path d="M14.6723 52.3164L12.3038 54.685C11.8701 55.1186 11.8701 55.8209 12.3038 56.2545L13.8472 57.798C14.2808 58.2316 14.9831 58.2316 15.4168 57.798L17.7853 55.4294L14.6723 52.3164Z" fill="#F3A334"/>
<path d="M15.012 56.2545C14.5783 55.8209 14.5783 55.1181 15.012 54.685L16.0261 53.6708L14.6723 52.3164L12.3038 54.685C11.8701 55.1181 11.8701 55.8209 12.3038 56.2545L13.8472 57.798C14.2808 58.2311 14.9837 58.2311 15.4168 57.798L15.9861 57.2287L15.012 56.2545Z" fill="#EE911C"/>
<path d="M29.3284 56.4074C29.9901 55.7457 33.6505 52.0853 34.12 51.6159L55.0817 30.6546L39.4467 15.0195L18.4854 35.9813C18.0566 36.4102 14.3614 40.1053 13.6939 40.7729C10.5937 43.8731 10.5584 48.9781 13.6939 52.1136C14.1489 52.5686 17.5327 55.9524 17.9877 56.4074C21.098 59.5178 26.2047 59.5311 29.3284 56.4074Z" fill="#E4E3E1"/>
<path d="M20.7221 56.4074C20.267 55.9524 16.8833 52.5686 16.4282 52.1136C13.2928 48.9781 13.328 43.8731 16.4282 40.7729C17.0958 40.1053 20.791 36.4102 21.2198 35.9813L40.8139 16.3867L39.4467 15.0195L18.4854 35.9813C18.0566 36.4102 14.3614 40.1053 13.6939 40.7729C10.5937 43.8731 10.5584 48.9781 13.6939 52.1136C14.1489 52.5686 17.5327 55.9524 17.9877 56.4074C19.8905 58.3103 22.5405 59.0521 25.0271 58.627C23.4463 58.3573 21.9328 57.6181 20.7221 56.4074Z" fill="#D1D0CF"/>
<path d="M52.9018 5.61269L64.4893 17.2001C65.0922 17.8036 66.0706 17.8036 66.6736 17.2001L68.6453 15.2284C69.2488 14.6249 69.2488 13.6471 68.6453 13.0441L57.0579 1.45612C56.4549 0.853168 55.4765 0.853168 54.8736 1.45612L52.9018 3.4284C52.2983 4.03135 52.2983 5.00974 52.9018 5.61269Z" fill="#E4E3E1"/>
<path d="M55.6357 5.61256C55.0327 5.00961 55.0327 4.03121 55.6357 3.42826L57.3329 1.73103L57.0579 1.45652C56.4549 0.853035 55.4771 0.853035 54.8736 1.45652L52.9018 3.42826C52.2983 4.03175 52.2983 5.00961 52.9018 5.61256L64.4893 17.2C65.0922 17.8035 66.0706 17.8035 66.6736 17.2L66.9486 16.9255L55.6357 5.61256Z" fill="#D1D0CF"/>
<path d="M34.1202 51.6144L38.9614 46.7726L53.8136 31.9204C52.2419 32.7562 50.2728 32.3343 49.187 30.8769C49.038 30.6766 48.7454 30.6766 48.5964 30.8769C47.1373 32.8348 44.2118 32.8337 42.7533 30.8769C42.6048 30.6772 42.3121 30.6772 42.1631 30.8764C40.7041 32.8348 37.7785 32.8337 36.32 30.8764C36.171 30.6766 35.8783 30.6766 35.7299 30.8764C34.2708 32.8348 31.3452 32.8337 29.8867 30.8764C29.7377 30.6766 29.4451 30.6766 29.2961 30.8769C27.8626 32.8011 24.9996 32.8422 23.5127 30.9517C12.7611 41.7039 13.4596 40.9701 13.018 41.5431C12.8877 41.7476 11.0259 43.9149 11.4067 47.3424C11.6102 49.1625 12.4193 50.8373 13.6936 52.1116L17.9879 56.4054C21.6884 60.1059 27.0535 58.5844 28.5559 57.0815C29.115 56.6505 28.8629 56.8716 34.1202 51.6144Z" fill="#FFC964"/>
<path d="M20.6278 58.1522C22.0906 58.73 23.6068 58.8069 24.9393 58.6099C23.3905 58.3284 21.9101 57.5951 20.7218 56.4069C20.2668 55.9518 16.883 52.5681 16.428 52.113C13.2925 48.9776 13.3278 43.8725 16.428 40.7723C17.0956 40.1047 20.7907 36.4096 21.2196 35.9807L25.0883 32.112C24.4928 31.8877 23.9443 31.5027 23.5123 30.9531C12.6143 41.8516 12.445 41.59 11.6834 44.163C10.7958 47.1864 11.8185 50.3555 13.6936 52.113C18.2021 56.6216 18.6903 57.3687 20.6278 58.1522Z" fill="#F3A334"/>
<path d="M35.7296 30.8798C35.8786 30.68 36.1712 30.68 36.3197 30.8798C37.7788 32.8382 40.7049 32.8371 42.1628 30.8798C42.3118 30.68 42.6045 30.68 42.7535 30.8803C43.1962 31.4747 43.8168 31.9287 44.5362 32.1653L50.5636 26.1379C49.6071 25.1814 44.9212 20.4956 43.9647 19.5391L31.4277 32.0761C32.9525 32.7015 34.7239 32.2299 35.7296 30.8798Z" fill="#D1D0CF"/>
<path d="M34.1621 32.0761L45.3319 20.9063C44.7124 20.2867 44.2125 19.7874 43.9647 19.5391L31.4277 32.0761C32.3266 32.4451 33.3103 32.4296 34.1733 32.0803C34.1696 32.0787 34.1658 32.0777 34.1621 32.0761Z" fill="#AFAFAF"/>
<path d="M60.9076 29.7889L40.3128 9.19401C39.7093 8.59053 38.7181 8.60388 38.098 9.22392L36.9188 10.4031C36.2993 11.0226 36.286 12.0144 36.8889 12.6173L57.4843 33.2127C58.0873 33.8157 59.0785 33.8023 59.6985 33.1828L60.8777 32.0036C61.4978 31.3836 61.5111 30.3924 60.9076 29.7889Z" fill="#72BDF6"/>
<path d="M39.6233 12.6173C39.0198 12.0144 39.0332 11.0232 39.6532 10.4031L40.5873 9.46852L40.3128 9.19401C39.7093 8.59053 38.7181 8.60388 38.098 9.22392L36.9188 10.4031C36.2993 11.0226 36.286 12.0144 36.8889 12.6173L57.4843 33.2127C58.0873 33.8157 59.079 33.8023 59.6985 33.1828L59.9437 32.9382L39.6233 12.6173Z" fill="#4B98D4"/>
<path d="M33.1332 55.2681C33.1332 56.7276 31.9498 57.9106 30.4902 57.9106C29.0306 57.9106 27.8477 56.7276 27.8477 55.2681C27.8477 53.8085 29.0306 52.625 30.4902 52.625C31.9498 52.625 33.1332 53.8085 33.1332 55.2681Z" fill="#A0634A"/>
<path d="M53.8149 55.2681C53.8149 56.7276 52.6319 57.9106 51.1723 57.9106C49.7128 57.9106 48.5293 56.7276 48.5293 55.2681C48.5293 53.8085 49.7128 52.625 51.1723 52.625C52.6319 52.625 53.8149 53.8085 53.8149 55.2681Z" fill="#A0634A"/>
<path d="M47.0875 59.2093C45.473 56.413 42.5111 54.492 39.8505 55.0725C33.9208 56.2485 30.9039 65.6329 35.5956 68.3417C36.8506 69.0664 38.3749 69.0595 39.8462 68.4629C40.4769 68.2071 41.1867 68.2071 41.8174 68.4629C43.2887 69.0595 44.8129 69.0664 46.0674 68.3417C48.6736 66.8367 49.1308 62.748 47.0875 59.2093Z" fill="#A0634A"/>
<path d="M48.5582 49.2791C48.5582 51.0495 47.1232 52.484 45.3533 52.484C43.5829 52.484 42.1484 51.0495 42.1484 49.2791C42.1484 47.5092 43.5829 46.0742 45.3533 46.0742C47.1232 46.0742 48.5582 47.5092 48.5582 49.2791Z" fill="#A0634A"/>
<path d="M39.5133 49.2791C39.5133 51.0495 38.0783 52.484 36.3084 52.484C34.5385 52.484 33.1035 51.0495 33.1035 49.2791C33.1035 47.5092 34.5385 46.0742 36.3084 46.0742C38.0783 46.0742 39.5133 47.5092 39.5133 49.2791Z" fill="#A0634A"/>
<path d="M31.9861 53.0863C31.561 52.7936 31.0456 52.6211 30.4902 52.6211C29.0306 52.6211 27.8477 53.8046 27.8477 55.2641C27.8477 56.7237 29.0306 57.9067 30.4902 57.9067C31.0456 57.9067 31.5604 57.7347 31.9861 57.4415C30.4571 56.3894 30.4587 54.1378 31.9861 53.0863Z" fill="#915039"/>
<path d="M52.6663 53.0863C52.2406 52.7936 51.7258 52.6211 51.1704 52.6211C49.7108 52.6211 48.5273 53.8046 48.5273 55.2641C48.5273 57.395 50.9237 58.6415 52.6663 57.442C51.1368 56.3894 51.1384 54.1378 52.6663 53.0863Z" fill="#915039"/>
<path d="M38.5862 68.3406C34.105 65.7531 36.6252 56.869 42.3375 55.1979C39.2367 54.273 36.1792 56.4284 34.5744 59.2082C32.5311 62.7469 32.9877 66.8356 35.5945 68.3406C36.6903 68.9734 37.9924 69.0482 39.2848 68.6594C39.0445 68.5756 38.8111 68.4704 38.5862 68.3406Z" fill="#915039"/>
<path d="M45.1402 49.2791C45.1402 48.0497 45.8329 46.9837 46.8492 46.4459C46.4022 46.2099 45.8938 46.0742 45.3533 46.0742C43.5835 46.0742 42.1484 47.5092 42.1484 49.2791C42.1484 51.0495 43.5829 52.484 45.3533 52.484C45.8938 52.484 46.4022 52.3489 46.8492 52.1128C45.8334 51.575 45.1402 50.5085 45.1402 49.2791Z" fill="#915039"/>
<path d="M37.8023 46.4459C37.3559 46.2099 36.8474 46.0742 36.3064 46.0742C34.5366 46.0742 33.1016 47.5092 33.1016 49.2791C33.1016 51.0495 34.5366 52.484 36.3064 52.484C36.8469 52.484 37.3559 52.3489 37.8023 52.1128C35.5251 50.9074 35.5283 47.6492 37.8023 46.4459Z" fill="#915039"/>
<path d="M51.2176 58.9788C53.2433 58.9788 54.8909 57.3312 54.8909 55.3055C54.8909 53.2804 53.2433 51.6328 51.2176 51.6328C49.1925 51.6328 47.5449 53.2804 47.5449 55.3055C47.5449 57.3312 49.1925 58.9788 51.2176 58.9788ZM51.2176 53.6831C52.1127 53.6831 52.8401 54.411 52.8401 55.3055C52.8401 56.2006 52.1127 56.928 51.2176 56.928C50.3231 56.928 49.5952 56.2006 49.5952 55.3055C49.5952 54.411 50.3231 53.6831 51.2176 53.6831Z" fill="black"/>
<path d="M45.3885 45.0703C43.0525 45.0703 41.1523 46.9705 41.1523 49.3065C41.1523 51.6424 43.0525 53.5426 45.3885 53.5426C47.7245 53.5426 49.6246 51.6424 49.6246 49.3065C49.6246 46.9705 47.7245 45.0703 45.3885 45.0703ZM45.3885 51.4918C44.1831 51.4918 43.2026 50.5113 43.2026 49.3065C43.2026 48.1011 44.1831 47.1211 45.3885 47.1211C46.5933 47.1211 47.5739 48.1011 47.5739 49.3065C47.5739 50.5113 46.5933 51.4918 45.3885 51.4918Z" fill="black"/>
<path d="M65.4989 8.46535C65.0983 8.06481 64.4494 8.06481 64.0489 8.46535C63.6484 8.8659 63.6484 9.51478 64.0489 9.91532C68.2471 14.1135 68.0746 13.8599 68.0746 14.1563C68.0746 14.4425 68.0923 14.3539 65.9507 16.4949C65.7483 16.6979 65.4193 16.6984 65.2164 16.4949C52.7386 4.01772 53.4767 4.84658 53.4767 4.54056C53.4767 4.45992 53.4965 4.30558 53.6289 4.17313C55.7726 2.02889 55.6824 2.04918 55.9675 2.04918C56.0482 2.04918 56.2025 2.06894 56.335 2.20139L60.6656 6.53206C61.0662 6.93207 61.7151 6.93207 62.1156 6.53206C62.5162 6.13152 62.5162 5.4821 62.1156 5.0821L57.7849 0.75142C56.783 -0.250473 55.1526 -0.250473 54.1501 0.75142L52.1784 2.72316C51.1765 3.72559 51.1765 5.35607 52.1784 6.35796L53.9477 8.12729L47.2992 14.7758L41.0262 8.50274C40.0238 7.50084 38.3933 7.50084 37.3914 8.50274L36.2437 9.65043C35.2418 10.6529 35.2413 12.2833 36.2432 13.2852L37.9986 15.0407C37.981 15.0578 13.0106 40.0287 13.0277 40.0111C11.1846 41.8899 10.3312 44.1004 10.3312 46.4636C10.3312 48.822 11.222 51.0351 12.8392 52.7211L11.5793 53.981C10.7467 54.8141 10.7467 56.1685 11.5793 57.0011L11.6258 57.0475L0.436726 68.2371C0.0367164 68.6377 0.0367164 69.2865 0.436726 69.6871C0.837803 70.0876 1.48668 70.0871 1.88669 69.6871L13.0763 58.4975L13.1227 58.5445C13.9553 59.3766 15.3102 59.3766 16.1428 58.5445L17.4027 57.2841C19.1346 58.9445 21.3926 59.7937 23.6629 59.7937C25.3425 59.7937 27.0264 59.3296 28.5068 58.3896C30.94 59.9635 34.1689 58.207 34.1689 55.3038C34.1689 54.6523 33.998 54.0408 33.6989 53.5094L34.226 52.9828C37.9404 55.111 42.1418 50.9406 40.0024 47.2065C42.6994 44.5095 53.3918 33.8171 55.0837 32.1252L56.8386 33.8806C57.8432 34.8847 59.4683 34.8847 60.4734 33.8806L61.6211 32.7324C62.6251 31.7284 62.6256 30.1027 61.6211 29.0981L55.348 22.8246L61.9965 16.1761L63.7659 17.9454C64.7677 18.9473 66.3988 18.9473 67.4007 17.9454L69.3724 15.9737C70.3743 14.9718 70.3743 13.3408 69.3724 12.3389L65.4989 8.46535ZM39.4486 16.4906L42.5168 19.5583L31.2487 30.8269C31.0479 30.6763 30.8663 30.4952 30.7109 30.287C30.1522 29.5366 29.0345 29.5371 28.4758 30.287C27.6331 31.4181 26.1062 31.6445 24.9932 30.9465L39.4486 16.4906ZM43.9667 21.0082L49.1156 26.1571L44.3139 30.9588C44.0207 30.7804 43.7702 30.5449 43.5774 30.2864C43.0177 29.535 41.8999 29.5387 41.3429 30.2864C40.2903 31.6995 38.1898 31.6905 37.1441 30.2864C36.5812 29.5318 35.4618 29.5457 34.9096 30.2864C34.7937 30.4894 34.3494 30.9102 33.8479 31.1276L43.9667 21.0082ZM14.6929 57.094C14.6603 57.1271 14.6058 57.1271 14.5732 57.094C13.3956 55.9164 14.2106 56.7314 13.0298 55.5506C12.9967 55.518 12.9967 55.4641 13.0298 55.4315L14.2865 54.1748L15.9495 55.8379L14.6929 57.094ZM28.8737 55.3038C28.8737 53.9313 30.47 53.1964 31.5157 54.0435C31.8789 54.3388 32.1186 54.7938 32.1186 55.3038C32.1186 57.4171 28.8737 57.4833 28.8737 55.3038ZM34.5427 50.5657C33.2444 48.7333 35.244 46.369 37.2632 47.3341C38.0264 47.7005 38.5108 48.4658 38.5108 49.3053C38.5108 51.4047 35.7935 52.3169 34.5427 50.5657ZM38.5861 45.7228C34.8605 43.349 30.3028 47.7394 32.7424 51.566L32.2383 52.0701C29.2038 50.4268 25.6891 53.582 27.1492 56.8163C24.449 58.3704 20.9681 57.9565 18.7149 55.7033L14.421 51.409C13.1062 50.0946 12.382 48.3381 12.382 46.4636C12.382 44.9105 12.8808 43.4397 13.7989 42.2328L14.5551 42.9885C14.9556 43.389 15.605 43.389 16.005 42.9885C16.4056 42.5879 16.4056 41.939 16.005 41.5385L15.2029 40.7363L17.4337 38.5056L18.2363 39.3077C18.6369 39.7083 19.2858 39.7077 19.6863 39.3077C20.0863 38.9072 20.0863 38.2583 19.6863 37.8578L18.8842 37.0556L21.1149 34.8249L21.9171 35.627C22.3176 36.027 22.9665 36.027 23.367 35.627C23.7676 35.2265 23.7676 34.577 23.367 34.177L22.5649 33.3744L23.5214 32.4184C25.2912 33.7957 27.8959 33.7316 29.5931 32.1086C31.3838 33.823 34.2389 33.8203 36.0269 32.1092C37.816 33.8214 40.6684 33.823 42.4601 32.1086C44.2487 33.8208 47.1011 33.8246 48.8934 32.1092C49.5038 32.6934 50.244 33.0881 51.0334 33.2755L38.5861 45.7228ZM53.2134 31.095C52.0908 31.6221 50.7626 31.2958 50.0112 30.287C49.648 29.7994 48.9644 29.5596 48.3225 29.8501L50.5655 27.6071L53.6337 30.6752L53.2134 31.095ZM60.1711 30.5476C60.3735 30.7505 60.3735 31.08 60.1711 31.2824L59.0234 32.4301C58.821 32.6325 58.491 32.6325 58.2886 32.4301C55.8271 29.9687 40.1722 14.3138 37.6937 11.8353C37.4913 11.6329 37.4913 11.3033 37.6937 11.1004L38.8414 9.9527C39.0438 9.7503 39.3738 9.7503 39.5762 9.9527C40.3052 10.6822 59.166 29.543 60.1711 30.5476ZM53.8981 21.3746L48.7492 16.2257L55.3977 9.57726L60.5466 14.7261L53.8981 21.3746Z" fill="black"/>
<path d="M39.6659 54.1041C33.7897 55.2785 29.9829 63.8191 33.8126 68.2198C35.3699 70.0094 37.7785 70.4777 40.255 69.4737C40.6379 69.3183 41.0769 69.3188 41.4598 69.4737C45.0022 70.9098 47.994 69.2548 49.0418 66.2197C49.2266 65.6846 48.9425 65.1003 48.4074 64.9161C47.8717 64.7308 47.288 65.0154 47.1037 65.5505C46.7593 66.5476 46.1195 67.3017 45.3013 67.6734C44.4302 68.0691 43.3685 68.035 42.2299 67.5735C41.345 67.2147 40.3698 67.2147 39.4848 67.5735C37.8084 68.2534 36.3435 68.0045 35.3593 66.8739C32.6302 63.7379 35.5862 57.0692 40.0931 56.11C42.168 55.6566 44.7528 57.1947 46.2375 59.7656C46.5499 60.3072 46.8041 60.8663 46.9921 61.4265C47.1726 61.9633 47.7537 62.2527 48.2904 62.0727C48.8271 61.8922 49.1166 61.3112 48.9361 60.7745C48.7048 60.0844 48.394 59.4003 48.0132 58.7402C46.066 55.3671 42.6353 53.4621 39.6659 54.1041Z" fill="black"/>
</g>
<defs>
<clipPath id="clip0_6881_34103">
<rect width="70" height="70" fill="white"/>
</clipPath>
</defs>
</svg>
