<svg xmlns="http://www.w3.org/2000/svg" height="70" viewBox="0 0 511 511.99965" width="70"><path d="M405.176 58.8l-59.727 59.727 48.266 48.266 59.726-59.727-48.265-48.265zm0 0" fill="#d1d0cf"/><path d="M371.883 124.96a9.096 9.096 0 0 1 0-12.866L415.172 68.8c-4.527-4.531-8.184-8.184-9.996-10l-59.727 59.726 48.266 48.266 9.996-10-31.828-31.832zm0 0" fill="#afafaf"/><path d="M106.813 382.66l-17.325 17.324a8.115 8.115 0 0 0 0 11.48l11.29 11.29a8.115 8.115 0 0 0 11.48 0l17.324-17.324zm0 0" fill="#f3a334"/><path d="M109.297 411.465a8.115 8.115 0 0 1 0-11.48l7.418-7.419-9.903-9.906-17.324 17.324a8.115 8.115 0 0 0 0 11.48l11.29 11.29c3.171 3.168 8.312 3.168 11.48 0l4.164-4.164zm0 0" fill="#ee911c"/><path d="M214.02 412.578l35.046-35.047 153.32-153.316-114.359-114.36-153.316 153.32-35.047 35.048c-22.676 22.675-22.934 60.015 0 82.949l31.406 31.406c22.75 22.75 60.102 22.848 82.95 0zm0 0" fill="#e4e3e1"/><path d="M151.07 412.578l-31.406-31.406c-22.934-22.934-22.676-60.274 0-82.95l35.047-35.046 143.316-143.32-10-10-153.316 153.32-35.047 35.047c-22.676 22.675-22.934 60.015 0 82.949l31.406 31.406c13.918 13.918 33.301 19.344 51.489 16.235-11.563-1.973-22.633-7.38-31.489-16.235zm0 0" fill="#d1d0cf"/><path d="M386.441 41.047l84.754 84.754c4.41 4.414 11.567 4.414 15.977 0l14.422-14.422c4.414-4.414 4.414-11.567 0-15.977L416.84 10.645c-4.41-4.41-11.567-4.41-15.977 0L386.441 25.07c-4.414 4.41-4.414 11.567 0 15.977zm0 0" fill="#e4e3e1"/><path d="M406.438 41.047c-4.41-4.41-4.41-11.567 0-15.977l12.414-12.414-2.012-2.008c-4.41-4.414-11.563-4.414-15.977 0L386.441 25.07c-4.414 4.414-4.414 11.567 0 15.977l84.754 84.754c4.41 4.414 11.567 4.414 15.977 0l2.012-2.008zm0 0" fill="#d1d0cf"/><path d="M249.066 377.535l35.41-35.414L393.11 233.488c-11.496 6.114-25.898 3.028-33.84-7.633a2.673 2.673 0 0 0-4.32 0c-10.672 14.32-32.07 14.313-42.738 0a2.675 2.675 0 0 0-4.316-.003c-10.672 14.324-32.07 14.316-42.739 0a2.673 2.673 0 0 0-4.316 0c-10.672 14.324-32.07 14.316-42.738 0a2.675 2.675 0 0 0-4.32.003c-10.485 14.075-31.427 14.375-42.302.547-78.64 78.645-73.53 73.278-76.761 77.47-.953 1.495-14.57 17.347-11.785 42.417 1.488 13.313 7.406 25.563 16.726 34.883l31.41 31.406c27.067 27.067 66.309 15.938 77.297 4.945 4.09-3.152 2.246-1.535 40.7-39.988zm0 0" fill="#ffc964"/><path d="M150.383 425.344c10.699 4.226 21.789 4.789 31.535 3.347-11.328-2.058-22.156-7.421-30.848-16.113l-31.406-31.406c-22.934-22.934-22.676-60.274 0-82.95l35.047-35.046 28.297-28.297c-4.356-1.64-8.367-4.457-11.528-8.477-79.71 79.715-80.949 77.801-86.52 96.621-6.491 22.114.99 45.293 14.704 58.149 32.977 32.976 36.547 38.441 50.719 44.172zm0 0" fill="#f3a334"/><path d="M260.84 225.852a2.673 2.673 0 0 1 4.316 0c10.672 14.324 32.074 14.316 42.739 0a2.675 2.675 0 0 1 4.32.003 26.665 26.665 0 0 0 13.039 9.399l44.086-44.086-48.266-48.266-91.699 91.7a26.6 26.6 0 0 0 31.465-8.75zm0 0" fill="#d1d0cf"/><path d="M249.375 234.602l81.7-81.7c-4.532-4.53-8.188-8.183-10-10l-91.7 91.7c6.574 2.699 13.77 2.585 20.082.03-.027-.01-.055-.019-.082-.03zm0 0" fill="#afafaf"/><path d="M445 217.879L294.363 67.242c-4.414-4.414-11.664-4.316-16.199.219l-8.625 8.625c-4.531 4.531-4.629 11.785-.219 16.195l150.64 150.64c4.411 4.411 11.661 4.313 16.196-.218l8.625-8.625c4.535-4.535 4.633-11.785.219-16.2zm0 0" fill="#72bdf6"/><path d="M289.32 92.281c-4.414-4.41-4.316-11.66.22-16.195l6.831-6.836-2.008-2.008c-4.414-4.414-11.664-4.316-16.199.219l-8.625 8.625c-4.531 4.531-4.629 11.785-.219 16.195l150.64 150.64c4.411 4.411 11.665 4.313 16.196-.218l1.793-1.789zm0 0" fill="#4b98d4"/><g fill="#a0634a"><path d="M241.84 404.23c0 10.676-8.656 19.329-19.332 19.329s-19.328-8.653-19.328-19.329 8.652-19.332 19.328-19.332 19.332 8.657 19.332 19.332zm0 0M393.11 404.23c0 10.676-8.653 19.329-19.329 19.329s-19.332-8.653-19.332-19.329 8.656-19.332 19.332-19.332 19.328 8.657 19.328 19.332zm0 0M343.902 433.07c-11.808-20.453-33.472-34.504-52.933-30.257-43.371 8.601-65.438 77.242-31.121 97.054 9.18 5.301 20.328 5.25 31.09.887a19.218 19.218 0 0 1 14.417 0c10.762 4.363 21.91 4.414 31.086-.887 19.063-11.008 22.407-40.914 7.461-66.797zm0 0M354.668 360.434c0 12.949-10.496 23.441-23.441 23.441-12.95 0-23.442-10.492-23.442-23.441 0-12.946 10.492-23.442 23.442-23.442 12.945 0 23.441 10.496 23.441 23.442zm0 0M288.504 360.434c0 12.949-10.496 23.441-23.442 23.441s-23.44-10.492-23.44-23.441c0-12.946 10.495-23.442 23.44-23.442s23.442 10.496 23.442 23.442zm0 0"/></g><path d="M233.45 388.3a19.237 19.237 0 0 0-10.942-3.402c-10.676 0-19.328 8.657-19.328 19.332s8.652 19.329 19.328 19.329c4.062 0 7.828-1.258 10.941-3.403-11.183-7.695-11.172-24.164 0-31.855zm0 0M384.723 388.3a19.246 19.246 0 0 0-10.942-3.402c-10.676 0-19.332 8.657-19.332 19.332 0 15.586 17.528 24.704 30.274 15.93-11.188-7.7-11.176-24.168 0-31.86zm0 0M281.73 499.867c-32.777-18.926-14.343-83.906 27.438-96.129-22.68-6.765-45.043 9-56.781 29.332-14.946 25.883-11.606 55.79 7.46 66.797 8.016 4.63 17.54 5.176 26.993 2.332a29.882 29.882 0 0 1-5.11-2.332zm0 0M329.668 360.434c0-8.993 5.066-16.79 12.5-20.723a23.36 23.36 0 0 0-10.941-2.719c-12.946 0-23.442 10.496-23.442 23.442 0 12.949 10.492 23.441 23.442 23.441 3.953 0 7.671-.988 10.941-2.715-7.43-3.933-12.5-11.734-12.5-20.726zm0 0M276.004 339.71a23.336 23.336 0 0 0-10.942-2.718c-12.945 0-23.44 10.496-23.44 23.442 0 12.949 10.495 23.441 23.44 23.441 3.954 0 7.676-.988 10.942-2.715-16.656-8.816-16.633-32.648 0-41.45zm0 0" fill="#915039"/><path d="M374.113 431.375c14.817 0 26.867-12.05 26.867-26.867 0-14.813-12.05-26.863-26.867-26.863-14.812 0-26.863 12.05-26.863 26.863 0 14.816 12.05 26.867 26.863 26.867zm0-38.734c6.547 0 11.867 5.324 11.867 11.867 0 6.547-5.32 11.867-11.867 11.867-6.543 0-11.867-5.32-11.867-11.867 0-6.543 5.324-11.867 11.867-11.867zm0 0"/><path d="M331.48 329.648c-17.085 0-30.984 13.899-30.984 30.985s13.899 30.984 30.984 30.984c17.086 0 30.985-13.898 30.985-30.984 0-17.086-13.899-30.985-30.985-30.985zm0 46.97c-8.816 0-15.988-7.173-15.988-15.985 0-8.817 7.172-15.985 15.988-15.985 8.813 0 15.985 7.168 15.985 15.985 0 8.812-7.172 15.984-15.985 15.984zm0 0"/><path d="M478.578 61.918a7.497 7.497 0 0 0-10.605 0 7.497 7.497 0 0 0 0 10.605c30.707 30.707 29.445 28.852 29.445 31.02 0 2.094.129 1.445-15.535 17.105a3.792 3.792 0 0 1-5.371 0c-91.266-91.261-85.867-85.199-85.867-87.437 0-.59.144-1.719 1.113-2.688 15.68-15.683 15.02-15.535 17.105-15.535.59 0 1.719.145 2.688 1.114l31.676 31.675a7.504 7.504 0 0 0 10.605 0 7.497 7.497 0 0 0 0-10.605L422.156 5.496c-7.328-7.328-19.254-7.328-26.586 0l-14.422 14.422c-7.328 7.332-7.328 19.258 0 26.586l12.942 12.941-48.63 48.63-45.882-45.884c-7.332-7.328-19.258-7.328-26.586 0l-8.394 8.395c-7.328 7.332-7.332 19.258-.004 26.586l12.84 12.84c-.13.125-182.77 182.77-182.645 182.64-13.48 13.743-19.723 29.91-19.723 47.196 0 17.25 6.516 33.437 18.344 45.77l-9.215 9.214c-6.09 6.094-6.09 16 0 22.09l.34.34-81.84 81.843a7.504 7.504 0 0 0 0 10.606 7.5 7.5 0 0 0 10.606 0l81.844-81.844.34.344c6.09 6.086 16 6.086 22.09 0l9.214-9.219c12.668 12.145 29.184 18.356 45.79 18.356 12.284 0 24.6-3.395 35.429-10.27 17.797 11.512 41.414-1.336 41.414-22.57 0-4.766-1.25-9.238-3.438-13.125l3.856-3.852c27.168 15.567 57.898-14.937 42.25-42.25l110.308-110.308 12.836 12.84c7.348 7.343 19.235 7.343 26.586 0l8.395-8.399c7.344-7.344 7.347-19.234 0-26.582l-45.883-45.887 48.629-48.629 12.941 12.942c7.328 7.328 19.258 7.328 26.586 0l14.422-14.422c7.328-7.328 7.328-19.258 0-26.586zm-190.539 58.7l22.441 22.437-82.417 82.422a19.53 19.53 0 0 1-3.934-3.95c-4.086-5.488-12.262-5.484-16.348 0-6.164 8.274-17.332 9.93-25.472 4.825zm33.047 33.042l37.66 37.66-35.121 35.121a19.283 19.283 0 0 1-5.387-4.918c-4.093-5.496-12.27-5.468-16.343 0-7.7 10.336-23.063 10.27-30.711 0-4.118-5.52-12.305-5.418-16.344 0-.848 1.485-4.098 4.563-7.766 6.153zM106.969 417.602a.618.618 0 0 1-.875 0l-11.29-11.29a.613.613 0 0 1 0-.87l9.192-9.192 12.164 12.164zm103.722-13.094c0-10.04 11.676-15.414 19.325-9.219 2.656 2.16 4.41 5.488 4.41 9.219 0 15.457-23.735 15.941-23.735 0zm41.465-34.656c-9.496-13.403 5.13-30.696 19.899-23.637 5.582 2.68 9.125 8.277 9.125 14.418 0 15.355-19.875 22.027-29.024 9.219zm29.574-35.422c-27.25-17.364-60.585 14.75-42.742 42.738l-3.687 3.687c-22.196-12.02-47.903 11.06-37.223 34.715-19.75 11.367-45.21 8.34-61.691-8.14l-31.407-31.41c-9.617-9.614-14.914-22.461-14.914-36.172 0-11.36 3.649-22.118 10.364-30.946l5.53 5.528a7.497 7.497 0 0 0 10.606 0 7.497 7.497 0 0 0 0-10.606l-5.867-5.867 16.317-16.316 5.87 5.867a7.5 7.5 0 0 0 10.606 0 7.504 7.504 0 0 0 0-10.606l-5.867-5.867 16.316-16.316 5.868 5.867a7.504 7.504 0 0 0 10.605 0 7.497 7.497 0 0 0 0-10.606l-5.867-5.87 6.996-6.993c12.945 10.074 31.996 9.606 44.41-2.265 13.098 12.539 33.98 12.52 47.059.003 13.086 12.524 33.949 12.536 47.054-.003 13.082 12.523 33.946 12.55 47.055.003a33.958 33.958 0 0 0 15.652 8.532zM388.72 227.437c-8.211 3.856-17.926 1.47-23.422-5.91-2.656-3.566-7.656-5.32-12.352-3.195l16.407-16.406 22.441 22.441zm50.89-4.003a3.808 3.808 0 0 1 0 5.375l-8.394 8.394a3.808 3.808 0 0 1-5.375 0L275.203 86.566a3.808 3.808 0 0 1 0-5.375l8.395-8.394a3.808 3.808 0 0 1 5.375 0c5.332 5.336 143.285 143.289 150.636 150.637zm-45.882-67.094l-37.66-37.66 48.628-48.63 37.66 37.66zm0 0"/><path d="M289.621 395.746c-42.98 8.59-70.824 71.059-42.812 103.246 11.39 13.09 29.007 16.516 47.12 9.172a11.832 11.832 0 0 1 8.813 0c25.91 10.504 47.793-1.601 55.457-23.8 1.352-3.915-.726-8.188-4.64-9.536a7.493 7.493 0 0 0-9.536 4.64c-2.52 7.294-7.199 12.81-13.183 15.528-6.371 2.895-14.137 2.645-22.465-.73a26.58 26.58 0 0 0-20.078 0c-12.262 4.972-22.977 3.152-30.176-5.118-19.96-22.937 1.66-71.714 34.625-78.73 15.176-3.316 34.082 7.934 44.942 26.738 2.285 3.961 4.144 8.051 5.519 12.149 1.32 3.925 5.57 6.043 9.496 4.726 3.926-1.32 6.043-5.57 4.723-9.496-1.692-5.047-3.965-10.05-6.75-14.879-14.242-24.672-39.336-38.605-61.055-33.91zm0 0"/></svg>