<svg width="70" height="70" viewBox="0 0 70 70" fill="none" xmlns="http://www.w3.org/2000/svg">
<g clip-path="url(#clip0_6881_33972)">
<path d="M61.5159 52.0726C55.3315 45.8876 48.2046 42.9872 45.5978 45.5939C42.9911 48.2006 45.8916 55.3276 52.0759 61.512C58.2609 67.6969 65.3873 70.5974 67.994 67.9907C70.6008 65.3839 67.7003 58.2569 61.5159 52.0726Z" fill="#EDD464"/>
<path d="M67.9953 67.9894C65.3875 70.5962 58.2605 67.6957 52.0767 61.5119C45.8918 55.3269 42.9913 48.1999 45.5975 45.5938C44.5764 46.6149 48.7623 52.4559 54.9478 58.6413C61.1316 64.8251 66.9737 69.0111 67.9953 67.9894Z" fill="#D8951E"/>
<path d="M56.5342 28.7895C56.5342 44.1116 44.1131 56.5322 28.7915 56.5322C13.4694 56.5322 1.04883 44.1116 1.04883 28.7895C1.04883 13.468 13.4694 1.04688 28.7915 1.04688C44.1131 1.04688 56.5342 13.468 56.5342 28.7895Z" fill="#43B9DD"/>
<path d="M49.4064 28.7859C49.4064 40.171 40.1768 49.4 28.7923 49.4C17.4073 49.4 8.17773 40.171 8.17773 28.7859C8.17773 17.4015 17.4073 8.17188 28.7923 8.17188C40.1768 8.17188 49.4064 17.4015 49.4064 28.7859Z" fill="#EAEAEA"/>
<path d="M43.3688 14.2128C38.738 9.58151 32.4516 7.61564 26.4141 8.31259C30.8713 8.82742 35.1929 10.7933 38.6125 14.2128C46.6623 22.2627 46.6623 35.315 38.6125 43.3654C35.1929 46.7845 30.8713 48.7503 26.4141 49.2652C32.4516 49.9626 38.738 47.9962 43.3688 43.3654C51.4192 35.315 51.4192 22.2632 43.3688 14.2128Z" fill="white"/>
<path d="M35.5959 33.5997C35.5959 37.3568 32.5501 40.403 28.7931 40.403C25.036 40.403 21.9902 37.3568 21.9902 33.5997C21.9902 29.8426 25.036 26.7969 28.7931 26.7969C32.5501 26.7969 35.5959 29.8426 35.5959 33.5997Z" fill="#B75129"/>
<path d="M26.943 20.0008C26.943 21.5629 25.6762 22.8297 24.1141 22.8297C22.5514 22.8297 21.2852 21.5629 21.2852 20.0008C21.2852 18.4381 22.5514 17.1719 24.1141 17.1719C25.6762 17.1719 26.943 18.4381 26.943 20.0008Z" fill="#B75129"/>
<path d="M19.6148 25.9227C19.6148 27.4848 18.3486 28.7516 16.7859 28.7516C15.2238 28.7516 13.957 27.4848 13.957 25.9227C13.957 24.36 15.2238 23.0938 16.7859 23.0938C18.3486 23.0938 19.6148 24.36 19.6148 25.9227Z" fill="#B75129"/>
<path d="M43.6285 26.1453C43.6285 27.7074 42.3617 28.9742 40.7996 28.9742C39.237 28.9742 37.9707 27.7074 37.9707 26.1453C37.9707 24.5827 39.237 23.3164 40.7996 23.3164C42.3617 23.3164 43.6285 24.5827 43.6285 26.1453Z" fill="#B75129"/>
<path d="M36.4078 20.0867C36.4078 21.6488 35.141 22.9156 33.5789 22.9156C32.0168 22.9156 30.75 21.6488 30.75 20.0867C30.75 18.5246 32.0168 17.2578 33.5789 17.2578C35.141 17.2578 36.4078 18.5246 36.4078 20.0867Z" fill="#B75129"/>
<path d="M13.4737 13.4713C5.02701 21.918 5.02701 35.6614 13.4737 44.108C17.697 48.3314 23.2442 50.443 28.792 50.443C34.3393 50.443 39.8871 48.3314 44.1104 44.108C52.5565 35.6614 52.5565 21.918 44.1104 13.4713C35.6637 5.02519 21.9198 5.02519 13.4737 13.4713ZM42.6262 14.9554C50.2547 22.5839 50.2547 34.9959 42.6262 42.6244C34.9978 50.2529 22.5857 50.2529 14.9573 42.6244C7.32933 34.9959 7.32933 22.5839 14.9573 14.9554C18.7715 11.1412 23.7815 9.23409 28.792 9.23409C33.802 9.23409 38.812 11.1412 42.6262 14.9554Z" fill="black"/>
<path d="M20.9395 33.6017C20.9395 37.9313 24.4616 41.454 28.7912 41.454C33.1208 41.454 36.6434 37.9313 36.6434 33.6017C36.6434 29.2721 33.1208 25.75 28.7912 25.75C24.4616 25.75 20.9395 29.2721 20.9395 33.6017ZM28.7917 27.8483C31.964 27.8483 34.5451 30.4294 34.5451 33.6017C34.5451 36.774 31.964 39.3556 28.7917 39.3556C25.6189 39.3556 23.0378 36.774 23.0378 33.6017C23.0378 30.4294 25.6189 27.8483 28.7917 27.8483Z" fill="black"/>
<path d="M22.403 23.4821C22.9434 23.7476 23.5245 23.8816 24.1093 23.8816C24.5312 23.8816 24.9547 23.8122 25.3654 23.6717C26.3459 23.3374 27.1374 22.641 27.594 21.7112C28.0506 20.7814 28.1179 19.7293 27.7831 18.7488C27.4487 17.7688 26.7523 16.9773 25.8225 16.5207C24.8927 16.0635 23.8407 15.9963 22.8607 16.3311C20.8366 17.0216 19.7519 19.23 20.4424 21.254C20.7768 22.234 21.4732 23.0255 22.403 23.4821ZM23.5384 18.3173C23.7264 18.2532 23.9208 18.2211 24.1141 18.2211C24.3827 18.2211 24.6498 18.2826 24.8976 18.4043C25.3243 18.6137 25.6436 18.9768 25.7969 19.427C25.9507 19.8767 25.9197 20.3595 25.7104 20.7862C25.5005 21.2129 25.1373 21.5323 24.6877 21.6856C24.2375 21.8394 23.7547 21.8084 23.328 21.599C22.9018 21.3892 22.5819 21.026 22.4286 20.5763C22.1119 19.6476 22.6097 18.634 23.5384 18.3173Z" fill="black"/>
<path d="M13.5321 23.816C12.9681 24.6849 12.7769 25.7216 12.9927 26.7347C13.2085 27.7478 13.8061 28.6161 14.675 29.1801C15.3255 29.602 16.0566 29.8034 16.7797 29.8034C18.0507 29.8034 19.2972 29.1806 20.039 28.0372C20.603 27.1683 20.7947 26.1317 20.5784 25.1186C20.3627 24.1055 19.7651 23.2366 18.8962 22.6732C18.0272 22.1092 16.9906 21.9175 15.9775 22.1332C14.9644 22.3495 14.0961 22.9471 13.5321 23.816ZM15.2929 24.9579C15.5514 24.5589 15.9498 24.2849 16.4149 24.1861C16.5394 24.1594 16.6649 24.1461 16.7893 24.1461C17.1295 24.1461 17.4622 24.2443 17.7543 24.4334C18.1528 24.6924 18.4273 25.0908 18.5261 25.5555C18.6254 26.0206 18.5373 26.4965 18.2788 26.8949C18.0198 27.2938 17.6214 27.5678 17.1562 27.6671C16.6916 27.7659 16.2157 27.6783 15.8168 27.4193C15.4184 27.1608 15.1439 26.7624 15.0451 26.2973C14.9463 25.8326 15.0339 25.3568 15.2929 24.9579Z" fill="black"/>
<path d="M37.4999 28.186C38.0452 29.0672 38.9008 29.683 39.9091 29.9201C40.2065 29.9901 40.5067 30.0248 40.8047 30.0248C41.5171 30.0248 42.2178 29.8272 42.8389 29.4427C43.7196 28.8979 44.3353 28.0424 44.5725 27.0341C44.8101 26.0258 44.6403 24.9849 44.0956 24.1042C43.5503 23.2236 42.6947 22.6078 41.6864 22.3702C40.6781 22.133 39.6378 22.3023 38.7566 22.8476C37.8759 23.3929 37.2602 24.2484 37.0225 25.2567C36.7854 26.265 36.9547 27.3054 37.4999 28.186ZM39.0653 25.7374C39.1742 25.2749 39.4567 24.8824 39.861 24.6319C40.1462 24.4556 40.4677 24.3649 40.7945 24.3649C40.9313 24.3649 41.069 24.3809 41.2052 24.4129C41.6683 24.5219 42.0608 24.8044 42.3107 25.2087C42.5612 25.6129 42.6386 26.0904 42.5297 26.5529C42.4207 27.0159 42.1382 27.4079 41.7339 27.6584C40.8998 28.1748 39.8007 27.9158 39.2842 27.0816C39.0343 26.6779 38.9569 26.2004 39.0653 25.7374Z" fill="black"/>
<path d="M32.2475 23.7322C32.6816 23.8908 33.1313 23.9698 33.5799 23.9698C34.1375 23.9698 34.6929 23.8481 35.2131 23.6061C36.1525 23.1687 36.8655 22.3928 37.2206 21.4197C37.5757 20.4467 37.5309 19.3935 37.094 18.4541C36.6572 17.5147 35.8807 16.8017 34.9076 16.4466C32.899 15.7128 30.6683 16.7504 29.9345 18.7596C29.5793 19.7326 29.6242 20.7858 30.061 21.7247C30.4984 22.6641 31.2744 23.377 32.2475 23.7322ZM31.9062 19.4789C32.1695 18.758 32.8531 18.3099 33.5794 18.3099C33.7818 18.3099 33.9874 18.3446 34.1882 18.4178C34.6347 18.5807 34.9909 18.908 35.1912 19.339C35.392 19.77 35.4123 20.2533 35.2494 20.6998C34.9129 21.6216 33.8892 22.098 32.9674 21.761C32.0456 21.4245 31.5692 20.4007 31.9062 19.4789Z" fill="black"/>
<path d="M69.0248 60.9787C67.75 57.8454 65.3472 54.4195 62.2598 51.3321C59.244 48.3168 55.8773 45.9424 52.8268 44.6553C55.9211 39.9882 57.5836 34.5162 57.5836 28.7879C57.5836 21.0975 54.5887 13.8674 49.1509 8.42912C48.3653 7.64353 47.529 6.89745 46.6648 6.21172C46.2104 5.85123 45.5508 5.9276 45.1903 6.38155C44.8304 6.8355 44.9062 7.49559 45.3601 7.85555C46.1618 8.49161 46.9377 9.18428 47.6673 9.91327C52.7088 14.9548 55.4853 21.6583 55.4853 28.7879C55.4853 35.9181 52.7088 42.6216 47.6673 47.6631C42.6252 52.7051 35.9218 55.4817 28.7921 55.4817C21.6619 55.4817 14.9584 52.7051 9.91691 47.6631C4.87487 42.6216 2.09831 35.9181 2.09831 28.7879C2.09831 21.6583 4.87487 14.9548 9.91691 9.91327C14.0751 5.75457 19.3441 3.13662 25.1546 2.34248C30.7788 1.5729 36.6053 2.63727 41.5614 5.33907C42.0704 5.61625 42.7075 5.42879 42.9847 4.91984C43.2624 4.41088 43.0749 3.77375 42.566 3.49657C37.2195 0.581689 30.9353 -0.566534 24.87 0.262857C18.6017 1.12002 12.9178 3.94411 8.43276 8.42912C2.99499 13.8674 0 21.0975 0 28.7879C0 36.4789 2.99499 43.7089 8.43276 49.1472C13.8711 54.585 21.1011 57.58 28.7921 57.58C34.5199 57.58 39.9923 55.9175 44.6595 52.8221C45.9471 55.8742 48.3204 59.2409 51.3352 62.2551C54.4231 65.3431 57.8496 67.7463 60.9824 69.0216C62.5819 69.6721 64.0351 69.9968 65.2906 69.9968C66.7219 69.9968 67.8968 69.5749 68.7374 68.7338C70.3156 67.1551 70.4176 64.401 69.0248 60.9787ZM67.2533 67.2502C66.324 68.18 64.3266 68.117 61.7739 67.0777C58.8937 65.906 55.7134 63.6661 52.8188 60.7715C49.8339 57.7867 47.5354 54.4729 46.4133 51.5623C47.3677 50.821 48.2825 50.0156 49.1509 49.1472C50.0193 48.2783 50.8252 47.3635 51.567 46.4091C54.476 47.5312 57.7898 49.8303 60.7757 52.8157C66.9371 58.9771 69.1348 65.3682 67.2533 67.2502Z" fill="black"/>
</g>
<defs>
<clipPath id="clip0_6881_33972">
<rect width="70" height="70" fill="white"/>
</clipPath>
</defs>
</svg>
